<?xml version="1.0" encoding="utf-8"?>
<!-- Generator: Adobe Illustrator 16.0.0, SVG Export Plug-In . SVG Version: 6.00 Build 0)  -->
<!DOCTYPE svg PUBLIC "-//W3C//DTD SVG 1.1//EN" "http://www.w3.org/Graphics/SVG/1.1/DTD/svg11.dtd">
<svg version="1.1" xmlns="http://www.w3.org/2000/svg" xmlns:xlink="http://www.w3.org/1999/xlink" x="0px" y="0px"
	 width="106.668px" height="106.668px" viewBox="0 0 106.668 106.668" enable-background="new 0 0 106.668 106.668"
	 xml:space="preserve">
<g id="Ebene_1">
	<path fill="#FFFFFF" stroke="#203C89" stroke-width="2" stroke-linecap="round" stroke-miterlimit="10" d="M105.668,79.133
		c0,14.654-11.881,26.535-26.535,26.535H27.535C12.88,105.668,1,93.787,1,79.133V27.535C1,12.88,12.88,1,27.535,1h51.598
		c14.654,0,26.535,11.88,26.535,26.535V79.133z"/>
</g>
<g id="Ebene_2">
	<polygon fill="#203C89" points="189.062,-4.809 138.126,46.126 170.594,50.094 	"/>
	
		<line fill="#FFFFFF" stroke="#203C89" stroke-width="6" stroke-linecap="round" stroke-miterlimit="10" x1="210.302" y1="27.867" x2="159.367" y2="-23.069"/>
	<path fill-rule="evenodd" clip-rule="evenodd" fill="#203C89" d="M-12.581,40.586c0,1.174,0,2.313,0,3.453
		c0,10.915-0.008,21.829,0.008,32.744c0.003,2.015-0.598,3.749-2.086,5.135c-1.201,1.118-2.637,1.707-4.273,1.71
		c-10.128,0.013-20.257,0.021-30.386,0.003c-3.484-0.006-6.334-2.869-6.34-6.375c-0.019-11.095-0.007-22.188-0.008-33.283
		c0-1.117,0-2.234,0-3.387C-41.283,40.586-26.968,40.586-12.581,40.586z M-42.729,62.127c0-0.471,0-0.943,0-1.414
		c0-3.796,0.003-7.591,0-11.387c-0.001-1.078-0.536-1.885-1.437-2.21c-1.499-0.541-2.91,0.53-2.911,2.245
		c-0.009,8.489-0.007,16.978-0.005,25.467c0,1.402,0.911,2.381,2.195,2.379c1.265-0.001,2.157-0.999,2.157-2.413
		C-42.731,70.571-42.731,66.35-42.729,62.127z M-31.949,62.117c0.001,0,0.002,0,0.003,0c0-4.267-0.003-8.534,0.002-12.802
		c0.001-0.998-0.413-1.746-1.325-2.154c-1.479-0.661-3.024,0.425-3.026,2.139c-0.01,8.535-0.009,17.069-0.005,25.604
		c0,1.342,0.942,2.31,2.202,2.303c1.242-0.006,2.148-0.996,2.148-2.354C-31.948,70.607-31.949,66.362-31.949,62.117z
		 M-21.169,62.126c0.001,0,0.002,0,0.004,0c0-4.268,0.002-8.535-0.002-12.802c-0.001-1.043-0.516-1.851-1.373-2.192
		c-1.477-0.587-2.972,0.479-2.974,2.159c-0.011,8.512-0.009,17.025-0.007,25.537c0,1.403,0.911,2.381,2.194,2.379
		c1.266-0.001,2.157-0.999,2.157-2.414C-21.169,70.571-21.169,66.349-21.169,62.126z"/>
	<path fill-rule="evenodd" clip-rule="evenodd" fill="#203C89" d="M-42.729,29.769c0-1.474-0.011-2.842,0.002-4.21
		c0.026-2.583,1.834-4.393,4.427-4.409c2.829-0.017,5.658-0.015,8.487-0.004c2.385,0.01,4.274,1.901,4.289,4.278
		c0.009,1.413,0.001,2.826,0.001,4.344c0.248,0,0.461,0,0.674,0c2.47,0.001,4.939,0.004,7.409,0.003
		c3.922-0.001,7.01,3.074,7.013,7.001c0.002,1.734,0.156,1.583-1.606,1.583c-14.931,0.001-29.861-0.001-44.792-0.003
		c-0.996,0-0.958-0.003-1.003-1.037c-0.176-3.979,2.357-6.434,4.712-7.149c0.761-0.231,1.579-0.361,2.374-0.377
		c2.424-0.049,4.849-0.019,7.274-0.021C-43.249,29.769-43.03,29.769-42.729,29.769z M-38.457,29.726c2.938,0,5.774,0,8.662,0
		c0-1.208,0.009-2.37-0.004-3.532c-0.006-0.478-0.283-0.768-0.757-0.77c-2.378-0.012-4.755-0.012-7.132-0.001
		c-0.476,0.002-0.757,0.287-0.764,0.763C-38.467,27.349-38.457,28.511-38.457,29.726z"/>
	<path fill-rule="evenodd" clip-rule="evenodd" fill="#203C89" d="M42.984,63.724c0-4.224,0-8.347,0-12.506
		c-4.176,0-8.33,0-12.545,0c0,1.219,0,2.414,0,3.609c0,0.531,0.006,1.063-0.007,1.594c-0.013,0.56-0.259,0.998-0.788,1.204
		c-0.517,0.201-0.997,0.088-1.417-0.293c-2.928-2.653-5.859-5.303-8.789-7.954c-0.364-0.33-0.739-0.648-1.092-0.99
		c-0.629-0.608-0.654-1.38-0.014-1.962c3.316-3.016,6.644-6.018,9.973-9.021c0.397-0.359,0.872-0.46,1.367-0.231
		c0.512,0.235,0.76,0.669,0.763,1.229c0.006,1.435,0.003,2.87,0.003,4.306c0,0.272,0,0.546,0,0.866c4.206,0,8.356,0,12.537,0
		c0-4.156,0-8.297,0-12.533c-0.233,0-0.46,0-0.688,0c-1.436,0.002-2.871-0.005-4.305,0.008c-0.617,0.005-1.144-0.148-1.415-0.746
		c-0.283-0.624-0.028-1.12,0.403-1.595c2.842-3.128,5.671-6.269,8.504-9.406c0.977-1.082,1.638-1.077,2.615,0.006
		c2.752,3.05,5.509,6.098,8.262,9.146c0.066,0.073,0.127,0.153,0.203,0.215c0.521,0.425,0.77,0.937,0.504,1.605
		c-0.264,0.661-0.813,0.773-1.445,0.767c-1.455-0.013-2.909-0.004-4.365-0.004c-0.211,0-0.421,0-0.661,0c0,4.209,0,8.351,0,12.538
		c4.155,0,8.307,0,12.534,0c0-0.233,0-0.444,0-0.654c0-1.475,0.004-2.949,0-4.424c-0.002-0.603,0.215-1.081,0.791-1.33
		c0.58-0.251,1.053-0.039,1.494,0.364c3.162,2.864,6.33,5.72,9.496,8.581c1.068,0.966,1.063,1.608-0.002,2.568
		c-3.127,2.817-6.244,5.642-9.369,8.458c-0.229,0.205-0.486,0.423-0.771,0.514c-0.871,0.276-1.613-0.32-1.631-1.316
		c-0.025-1.454-0.008-2.909-0.008-4.364c0-0.234,0-0.469,0-0.747c-4.195,0-8.352,0-12.533,0c0,4.156,0,8.293,0,12.5
		c0.26,0,0.489,0,0.719,0c1.435,0,2.871,0.002,4.306,0c0.619-0.003,1.137,0.194,1.389,0.794c0.24,0.568,0.051,1.06-0.354,1.507
		c-2.92,3.219-5.829,6.444-8.744,9.668c-0.753,0.832-1.487,0.838-2.246,0c-2.93-3.232-5.852-6.476-8.782-9.708
		c-0.392-0.434-0.555-0.911-0.324-1.458c0.242-0.57,0.725-0.801,1.326-0.801c1.475-0.002,2.949-0.002,4.424-0.002
		C42.514,63.724,42.726,63.724,42.984,63.724z"/>
	
		<polygon fill="#1E3D87" stroke="#FFFFFF" stroke-width="2.5" stroke-linecap="round" stroke-linejoin="round" stroke-miterlimit="10" points="
		49.484,49.618 62.439,87.382 85.947,65.876 	"/>
	
		<line fill="none" stroke="#1E3D87" stroke-width="4" stroke-linecap="round" stroke-miterlimit="10" x1="86.141" y1="89.688" x2="64.795" y2="66.356"/>
	<polygon fill="#1E3D87" points="184.834,67.055 196.273,100.394 217.024,81.407 	"/>
	
		<line fill="none" stroke="#1E3D87" stroke-width="4" stroke-linecap="round" stroke-miterlimit="10" x1="217.196" y1="102.429" x2="198.352" y2="81.831"/>
</g>
</svg>
