<?xml version="1.0" encoding="utf-8"?>
<!-- Generator: Adobe Illustrator 16.0.0, SVG Export Plug-In . SVG Version: 6.00 Build 0)  -->
<!DOCTYPE svg PUBLIC "-//W3C//DTD SVG 1.1//EN" "http://www.w3.org/Graphics/SVG/1.1/DTD/svg11.dtd">
<svg version="1.1" id="Ebene_1" xmlns="http://www.w3.org/2000/svg" xmlns:xlink="http://www.w3.org/1999/xlink" x="0px" y="0px"
	 width="106.668px" height="106.668px" viewBox="0 0 106.668 106.668" enable-background="new 0 0 106.668 106.668"
	 xml:space="preserve">
<g id="Ebene_1_1_">
	<path fill="#FFFFFF" stroke="#203C89" stroke-width="2" stroke-linecap="round" stroke-miterlimit="10" d="M105.668,79.133
		c0,14.654-11.881,26.535-26.535,26.535H27.535C12.88,105.668,1,93.787,1,79.133V27.535C1,12.88,12.88,1,27.535,1h51.598
		c14.654,0,26.535,11.88,26.535,26.535V79.133z"/>
</g>
<g>
	<path fill="#203C89" d="M74.883,41.531c0,1.174,0,2.313,0,3.453c0,10.915-0.008,21.829,0.008,32.744
		c0.003,2.015-0.598,3.748-2.086,5.135c-1.2,1.118-2.637,1.707-4.272,1.71c-10.129,0.013-20.257,0.021-30.386,0.003
		c-3.484-0.006-6.334-2.869-6.34-6.375c-0.019-11.095-0.007-22.188-0.008-33.282c0-1.117,0-2.234,0-3.387
		C46.181,41.531,60.496,41.531,74.883,41.531z M44.735,63.071c0-0.471,0-0.943,0-1.414c0-3.796,0.003-7.591,0-11.386
		c-0.001-1.078-0.536-1.885-1.437-2.21c-1.499-0.541-2.91,0.53-2.911,2.245c-0.009,8.488-0.007,16.978-0.005,25.467
		c0,1.402,0.911,2.381,2.195,2.379c1.265-0.001,2.157-0.999,2.157-2.413C44.733,71.515,44.733,67.294,44.735,63.071z M55.515,63.062
		c0.001,0,0.002,0,0.004,0c0-4.268-0.004-8.534,0.002-12.802c0-0.998-0.414-1.746-1.326-2.154c-1.479-0.661-3.023,0.425-3.025,2.139
		c-0.01,8.535-0.009,17.069-0.005,25.604c0,1.342,0.942,2.31,2.202,2.303c1.242-0.006,2.147-0.996,2.147-2.354
		C55.516,71.552,55.515,67.306,55.515,63.062z M66.295,63.07c0.001,0,0.002,0,0.004,0c0-4.269,0.002-8.535-0.002-12.801
		c-0.001-1.043-0.517-1.851-1.373-2.192c-1.478-0.587-2.972,0.479-2.974,2.159c-0.012,8.511-0.01,17.025-0.008,25.537
		c0,1.402,0.912,2.381,2.194,2.379c1.267-0.001,2.157-0.999,2.157-2.414C66.295,71.515,66.295,67.294,66.295,63.07z"/>
	<path fill="#203C89" d="M44.735,30.714c0-1.474-0.011-2.842,0.002-4.21c0.026-2.583,1.834-4.393,4.427-4.409
		c2.829-0.017,5.657-0.015,8.487-0.004c2.385,0.01,4.273,1.901,4.289,4.278c0.008,1.413,0,2.826,0,4.344c0.248,0,0.461,0,0.674,0
		c2.471,0.001,4.939,0.004,7.41,0.003c3.922-0.001,7.01,3.074,7.013,7.001c0.002,1.734,0.155,1.583-1.606,1.583
		C60.5,39.301,45.57,39.299,30.639,39.297c-0.996,0-0.958-0.003-1.003-1.037c-0.176-3.979,2.357-6.434,4.712-7.149
		c0.761-0.231,1.579-0.361,2.374-0.377c2.424-0.049,4.849-0.019,7.274-0.021C44.215,30.714,44.434,30.714,44.735,30.714z
		 M49.007,30.671c2.938,0,5.773,0,8.662,0c0-1.208,0.009-2.37-0.004-3.532c-0.006-0.478-0.283-0.768-0.758-0.77
		c-2.377-0.012-4.754-0.012-7.131-0.001c-0.476,0.002-0.757,0.287-0.764,0.763C48.997,28.294,49.007,29.456,49.007,30.671z"/>
</g>
</svg>
