<?xml version="1.0" encoding="utf-8"?>
<!-- Generator: Adobe Illustrator 16.0.0, SVG Export Plug-In . SVG Version: 6.00 Build 0)  -->
<!DOCTYPE svg PUBLIC "-//W3C//DTD SVG 1.1//EN" "http://www.w3.org/Graphics/SVG/1.1/DTD/svg11.dtd">
<svg version="1.1" id="Ebene_1" xmlns="http://www.w3.org/2000/svg" xmlns:xlink="http://www.w3.org/1999/xlink" x="0px" y="0px"
	 width="106.668px" height="106.668px" viewBox="0 0 106.668 106.668" enable-background="new 0 0 106.668 106.668"
	 xml:space="preserve">
<g id="Ebene_1_1_">
	<path fill="#FFFFFF" stroke="#203C89" stroke-width="2" stroke-linecap="round" stroke-miterlimit="10" d="M105.668,79.133
		c0,14.654-11.881,26.535-26.535,26.535H27.535C12.88,105.668,1,93.787,1,79.133V27.535C1,12.88,12.88,1,27.535,1h51.598
		c14.654,0,26.535,11.88,26.535,26.535V79.133z"/>
</g>
<polygon fill="#203C89" points="189.063,-4.809 138.126,46.126 170.594,50.094 "/>
<line fill="none" stroke="#203C89" stroke-width="6" stroke-linecap="round" stroke-miterlimit="10" x1="210.302" y1="27.867" x2="159.367" y2="-23.069"/>
<path fill="#203C89" d="M-12.581,40.586c0,1.174,0,2.313,0,3.453c0,10.915-0.008,21.829,0.008,32.744
	c0.003,2.015-0.598,3.748-2.086,5.135c-1.201,1.118-2.637,1.707-4.273,1.71c-10.128,0.013-20.257,0.021-30.386,0.003
	c-3.484-0.006-6.334-2.869-6.34-6.375c-0.019-11.095-0.007-22.188-0.008-33.283c0-1.117,0-2.234,0-3.387
	C-41.283,40.586-26.968,40.586-12.581,40.586z M-42.729,62.127c0-0.471,0-0.943,0-1.414c0-3.796,0.003-7.591,0-11.387
	c-0.001-1.078-0.536-1.885-1.437-2.21c-1.499-0.541-2.91,0.53-2.911,2.245c-0.009,8.489-0.007,16.978-0.005,25.467
	c0,1.402,0.911,2.381,2.195,2.379c1.265-0.001,2.157-0.999,2.157-2.413C-42.731,70.57-42.731,66.35-42.729,62.127z M-31.949,62.117
	c0.001,0,0.002,0,0.003,0c0-4.268-0.003-8.534,0.002-12.802c0.001-0.998-0.413-1.746-1.325-2.154
	c-1.479-0.661-3.024,0.425-3.026,2.139c-0.01,8.535-0.009,17.069-0.005,25.604c0,1.342,0.942,2.31,2.202,2.303
	c1.242-0.006,2.148-0.996,2.148-2.354C-31.948,70.607-31.949,66.361-31.949,62.117z M-21.169,62.126c0.001,0,0.002,0,0.004,0
	c0-4.269,0.002-8.535-0.002-12.802c-0.001-1.043-0.516-1.851-1.373-2.192c-1.477-0.587-2.972,0.479-2.974,2.159
	c-0.011,8.512-0.009,17.025-0.007,25.537c0,1.402,0.911,2.381,2.194,2.379c1.266-0.001,2.157-0.999,2.157-2.414
	C-21.169,70.57-21.169,66.35-21.169,62.126z"/>
<path fill="#203C89" d="M-42.729,29.769c0-1.474-0.011-2.842,0.002-4.21c0.026-2.583,1.834-4.393,4.427-4.409
	c2.829-0.017,5.658-0.015,8.487-0.004c2.385,0.01,4.274,1.901,4.289,4.278c0.009,1.413,0.001,2.826,0.001,4.344
	c0.248,0,0.461,0,0.674,0c2.47,0.001,4.939,0.004,7.409,0.003c3.922-0.001,7.01,3.074,7.013,7.001
	c0.002,1.734,0.156,1.583-1.606,1.583c-14.931,0.001-29.861-0.001-44.792-0.003c-0.996,0-0.958-0.003-1.003-1.037
	c-0.176-3.979,2.357-6.434,4.712-7.149c0.761-0.231,1.579-0.361,2.374-0.377c2.424-0.049,4.849-0.019,7.274-0.021
	C-43.249,29.769-43.03,29.769-42.729,29.769z M-38.457,29.726c2.938,0,5.774,0,8.662,0c0-1.208,0.009-2.37-0.004-3.532
	c-0.006-0.478-0.283-0.768-0.757-0.77c-2.378-0.012-4.755-0.012-7.132-0.001c-0.476,0.002-0.757,0.287-0.764,0.763
	C-38.467,27.349-38.457,28.511-38.457,29.726z"/>
<polygon fill="#1E3D87" points="184.834,67.055 196.273,100.395 217.023,81.406 "/>
<line fill="none" stroke="#1E3D87" stroke-width="4" stroke-linecap="round" stroke-miterlimit="10" x1="217.195" y1="102.43" x2="198.352" y2="81.831"/>
<circle fill="#203C89" stroke="#FFFFFF" stroke-width="2" stroke-linecap="round" stroke-miterlimit="10" cx="49.484" cy="49.618" r="14.593"/>
<polygon fill="#1E3D87" stroke="#FFFFFF" stroke-width="2.5" stroke-linecap="round" stroke-linejoin="round" stroke-miterlimit="10" points="
	49.484,49.618 62.439,87.382 85.947,65.876 "/>
<line fill="none" stroke="#1E3D87" stroke-width="4" stroke-linecap="round" stroke-miterlimit="10" x1="86.141" y1="89.688" x2="64.795" y2="66.355"/>
</svg>
