<?xml version="1.0" encoding="utf-8"?>
<!-- Generator: Adobe Illustrator 16.0.0, SVG Export Plug-In . SVG Version: 6.00 Build 0)  -->
<!DOCTYPE svg PUBLIC "-//W3C//DTD SVG 1.1//EN" "http://www.w3.org/Graphics/SVG/1.1/DTD/svg11.dtd">
<svg version="1.1" id="Ebene_1" xmlns="http://www.w3.org/2000/svg" xmlns:xlink="http://www.w3.org/1999/xlink" x="0px" y="0px"
	 width="106.668px" height="106.668px" viewBox="0 0 106.668 106.668" enable-background="new 0 0 106.668 106.668"
	 xml:space="preserve">
<g id="Ebene_1_1_">
	<path fill="#FFFFFF" stroke="#203C89" stroke-width="2" stroke-linecap="round" stroke-miterlimit="10" d="M105.668,79.133
		c0,14.654-11.881,26.535-26.535,26.535H27.535C12.88,105.668,1,93.787,1,79.133V27.535C1,12.88,12.88,1,27.535,1h51.598
		c14.654,0,26.535,11.88,26.535,26.535V79.133z"/>
</g>
<line fill="none" stroke="#203C89" stroke-width="5" stroke-linecap="round" stroke-miterlimit="10" x1="19.719" y1="81.948" x2="81.949" y2="19.719"/>
<g>
	<rect x="29.459" y="20.709" fill="none" stroke="#FFFFFF" stroke-width="6" stroke-miterlimit="10" width="41.25" height="43"/>
	<g>
		<polyline fill="none" stroke="#203C89" stroke-width="4" stroke-miterlimit="10" points="70.709,61.709 70.709,63.709 
			68.709,63.709 		"/>
		
			<line fill="none" stroke="#203C89" stroke-width="4" stroke-miterlimit="10" stroke-dasharray="4.1389,4.1389" x1="64.57" y1="63.709" x2="33.528" y2="63.709"/>
		<polyline fill="none" stroke="#203C89" stroke-width="4" stroke-miterlimit="10" points="31.459,63.709 29.459,63.709 
			29.459,61.709 		"/>
		
			<line fill="none" stroke="#203C89" stroke-width="4" stroke-miterlimit="10" stroke-dasharray="4.3333,4.3333" x1="29.459" y1="57.376" x2="29.459" y2="24.875"/>
		<polyline fill="none" stroke="#203C89" stroke-width="4" stroke-miterlimit="10" points="29.459,22.709 29.459,20.709 
			31.459,20.709 		"/>
		
			<line fill="none" stroke="#203C89" stroke-width="4" stroke-miterlimit="10" stroke-dasharray="4.1389,4.1389" x1="35.598" y1="20.709" x2="66.64" y2="20.709"/>
		<polyline fill="none" stroke="#203C89" stroke-width="4" stroke-miterlimit="10" points="68.709,20.709 70.709,20.709 
			70.709,22.709 		"/>
		
			<line fill="none" stroke="#203C89" stroke-width="4" stroke-miterlimit="10" stroke-dasharray="4.3333,4.3333" x1="70.709" y1="27.042" x2="70.709" y2="59.542"/>
	</g>
</g>
<g>
	<polygon fill="#203C89" points="66.454,57.925 70.691,89.188 92.214,76.133 	"/>
	
		<line fill="none" stroke="#203C89" stroke-width="4" stroke-linecap="round" stroke-miterlimit="10" x1="88.705" y1="94.616" x2="75.746" y2="73.252"/>
</g>
</svg>
