<?xml version="1.0" encoding="utf-8"?>
<!-- Generator: Adobe Illustrator 16.0.0, SVG Export Plug-In . SVG Version: 6.00 Build 0)  -->
<!DOCTYPE svg PUBLIC "-//W3C//DTD SVG 1.1//EN" "http://www.w3.org/Graphics/SVG/1.1/DTD/svg11.dtd">
<svg version="1.1" id="Ebene_1" xmlns="http://www.w3.org/2000/svg" xmlns:xlink="http://www.w3.org/1999/xlink" x="0px" y="0px"
	 width="106.668px" height="106.668px" viewBox="0 0 106.668 106.668" enable-background="new 0 0 106.668 106.668"
	 xml:space="preserve">
<g id="Ebene_1_1_">
	<path fill="#FFFFFF" stroke="#203C89" stroke-width="2" stroke-linecap="round" stroke-miterlimit="10" d="M105.668,79.133
		c0,14.654-11.881,26.535-26.535,26.535H27.535C12.88,105.668,1,93.787,1,79.133V27.535C1,12.88,12.88,1,27.535,1h51.598
		c14.654,0,26.535,11.88,26.535,26.535V79.133z"/>
</g>
<line fill="none" stroke="#203C89" stroke-width="6" stroke-linecap="round" stroke-miterlimit="10" x1="210.302" y1="27.867" x2="159.367" y2="-23.069"/>
<line fill="none" stroke="#1E3D87" stroke-width="4" stroke-linecap="round" stroke-miterlimit="10" x1="152.961" y1="112.061" x2="131.615" y2="88.729"/>
<g>
	<path fill-rule="evenodd" clip-rule="evenodd" fill="#1E3D87" d="M92.597,73.813c-0.088,0.434-0.16,0.873-0.261,1.301
		c-0.921,3.793-3.967,6.459-8.004,7.011c-4.238,0.578-8.478-1.974-9.938-5.989c-0.649-1.782-0.735-3.601-0.211-5.425
		c0.114-0.401,0.011-0.572-0.311-0.786c-10.42-6.831-20.835-13.669-31.249-20.506c-0.149-0.1-0.297-0.2-0.551-0.372
		c1.008-0.376,1.914-0.752,2.841-1.057c1.987-0.656,4.013-1.12,6.112-1.257c1.872-0.124,3.614,0.168,5.091,1.396
		c2.402,1.996,4.804,3.994,7.171,6.031c1.631,1.405,3.208,2.875,4.799,4.328c0.252,0.231,0.423,0.243,0.711,0.052
		c1.694-1.134,3.396-2.257,5.112-3.356c0.322-0.207,0.369-0.392,0.268-0.756c-1.455-5.357,2.259-10.786,7.794-11.406
		c4.764-0.535,8.976,2.174,10.261,6.613c0.159,0.548,0.243,1.118,0.364,1.678c0,0.494,0,0.988,0,1.481
		c-0.054,0.272-0.108,0.544-0.162,0.817c-1.363,6.981-9.72,9.975-15.222,5.447c-0.135-0.112-0.27-0.225-0.416-0.347
		c-1.386,1.296-2.738,2.556-4.127,3.856c1.396,1.301,2.759,2.572,4.132,3.854c1.541-1.354,3.285-2.14,5.285-2.407
		c4.446-0.604,8.881,2.241,10.113,6.55c0.167,0.578,0.266,1.177,0.396,1.769C92.597,72.827,92.597,73.319,92.597,73.813z
		 M83.234,67.58c-3.137-0.012-5.647,2.43-5.656,5.496c-0.01,2.983,2.497,5.479,5.515,5.488c3.204,0.011,5.749-2.395,5.76-5.447
		C88.868,70.06,86.362,67.589,83.234,67.58z M83.221,46.563c-3.116,0-5.634,2.435-5.643,5.46c-0.01,3.064,2.497,5.523,5.627,5.523
		c3.157,0,5.654-2.456,5.647-5.558C88.848,49.012,86.308,46.563,83.221,46.563z"/>
	<path fill-rule="evenodd" clip-rule="evenodd" fill="#1E3D87" d="M66.296,68.181c-1.353,1.181-2.637,2.328-3.951,3.442
		c-1.957,1.658-3.976,3.24-5.893,4.943c-2.291,2.036-4.899,2.488-7.807,1.87c-2.215-0.471-4.324-1.225-6.331-2.264
		c-0.042-0.022-0.077-0.059-0.154-0.117c0.106-0.086,0.195-0.171,0.296-0.234c5.766-3.789,11.534-7.573,17.296-11.369
		c0.335-0.221,0.563-0.236,0.907-0.007c1.714,1.159,3.451,2.284,5.182,3.42C65.979,67.955,66.109,68.05,66.296,68.181z"/>
</g>
<line fill="none" stroke="#203C89" stroke-width="6" stroke-linecap="round" stroke-miterlimit="10" x1="45.658" y1="59.99" x2="19.28" y2="86.367"/>
<line fill="none" stroke="#203C89" stroke-width="6" stroke-linecap="round" stroke-miterlimit="10" x1="87.388" y1="18.26" x2="62.597" y2="43.051"/>
<g>
	<g>
		<g enable-background="new    ">
			<g enable-background="new    ">
				<defs>
					<path id="SVGID_1_" enable-background="new    " d="M215.035,137.364l3.523-2.048c0.064-0.029,0.122-0.055,0.186-0.063
						l-3.523,2.049C215.156,137.31,215.099,137.335,215.035,137.364z"/>
				</defs>
				<clipPath id="SVGID_2_">
					<use xlink:href="#SVGID_1_"  overflow="visible"/>
				</clipPath>
				<g clip-path="url(#SVGID_2_)" enable-background="new    ">
					<path fill="#132953" d="M215.035,137.364l3.523-2.048c0.034-0.016,0.066-0.03,0.099-0.041l-3.524,2.048
						C215.102,137.334,215.068,137.349,215.035,137.364"/>
					<path fill="#142A56" d="M215.133,137.323l3.524-2.048c0.02-0.007,0.039-0.013,0.059-0.017l-3.524,2.048
						C215.172,137.311,215.152,137.316,215.133,137.323"/>
					<path fill="#152C5A" d="M215.191,137.307l3.524-2.048c0.01-0.002,0.019-0.003,0.028-0.005l-3.523,2.049
						C215.211,137.304,215.201,137.305,215.191,137.307"/>
				</g>
			</g>
			<g enable-background="new    ">
				<defs>
					<path id="SVGID_3_" enable-background="new    " d="M215.221,137.303l3.523-2.049c3.615-0.639,7.224-1.281,10.839-1.928
						c0.104-0.019,0.192-0.008,0.282,0.045l-3.523,2.048c-0.091-0.053-0.18-0.063-0.282-0.045
						C222.444,136.021,218.836,136.663,215.221,137.303z"/>
				</defs>
				<clipPath id="SVGID_4_">
					<use xlink:href="#SVGID_3_"  overflow="visible"/>
				</clipPath>
				<g clip-path="url(#SVGID_4_)" enable-background="new    ">
					<path fill="#152C5A" d="M215.221,137.303l3.523-2.049c3.615-0.639,7.224-1.281,10.839-1.928
						c0.017-0.003,0.032-0.006,0.048-0.007l-3.524,2.048c-0.016,0.001-0.031,0.004-0.047,0.007
						C222.444,136.021,218.836,136.663,215.221,137.303"/>
					<path fill="#152D5D" d="M226.106,135.367l3.524-2.048c0.013-0.001,0.025-0.002,0.038-0.002l-3.523,2.048
						C226.133,135.365,226.119,135.366,226.106,135.367"/>
					<path fill="#162F60" d="M226.146,135.365l3.523-2.048c0.011,0,0.021,0,0.03,0.001l-3.524,2.048
						C226.165,135.365,226.155,135.365,226.146,135.365"/>
					<path fill="#173063" d="M226.175,135.366l3.524-2.048c0.008,0.001,0.016,0.002,0.024,0.003l-3.524,2.048
						C226.191,135.368,226.184,135.367,226.175,135.366"/>
					<path fill="#183266" d="M226.199,135.369l3.524-2.048c0.007,0.001,0.014,0.002,0.021,0.003l-3.523,2.048
						C226.213,135.371,226.206,135.37,226.199,135.369"/>
					<path fill="#18336A" d="M226.221,135.372l3.523-2.048c0.007,0.001,0.013,0.003,0.019,0.004l-3.523,2.048
						C226.232,135.375,226.227,135.373,226.221,135.372"/>
					<path fill="#19356D" d="M226.239,135.376l3.523-2.048c0.006,0.002,0.012,0.003,0.018,0.005l-3.524,2.048
						C226.25,135.379,226.245,135.378,226.239,135.376"/>
					<path fill="#1A3770" d="M226.256,135.381l3.524-2.048c0.005,0.002,0.011,0.004,0.016,0.006l-3.523,2.048
						C226.267,135.385,226.262,135.383,226.256,135.381"/>
					<polyline fill="#1B3873" points="226.272,135.387 229.796,133.339 229.812,133.344 226.287,135.393 226.272,135.387 					"/>
					<polyline fill="#1B3A76" points="226.287,135.393 229.812,133.344 229.826,133.351 226.302,135.398 226.287,135.393 					"/>
					<polyline fill="#1C3B7A" points="226.302,135.398 229.826,133.351 229.84,133.357 226.316,135.405 226.302,135.398 					"/>
					<polyline fill="#1D3D7D" points="226.316,135.405 229.84,133.357 229.854,133.364 226.33,135.412 226.316,135.405 					"/>
					<polyline fill="#1E3E80" points="226.33,135.412 229.854,133.364 229.865,133.371 226.342,135.419 226.33,135.412 					"/>
				</g>
			</g>
			<g enable-background="new    ">
				<defs>
					<path id="SVGID_5_" enable-background="new    " d="M226.342,135.419l3.523-2.048c0.088,0.05,0.176,0.14,0.279,0.279
						c1.07,1.448,2.16,2.893,3.237,4.33l-3.524,2.049c-1.077-1.438-2.166-2.883-3.236-4.331
						C226.518,135.559,226.429,135.469,226.342,135.419z"/>
				</defs>
				<clipPath id="SVGID_6_">
					<use xlink:href="#SVGID_5_"  overflow="visible"/>
				</clipPath>
				<g clip-path="url(#SVGID_6_)" enable-background="new    ">
					<polyline fill="#1E3E80" points="226.342,135.419 229.865,133.371 229.869,133.373 226.345,135.421 226.342,135.419 					"/>
					<polyline fill="#1E4083" points="226.345,135.421 229.869,133.373 229.883,133.381 226.359,135.43 226.345,135.421 					"/>
					<polyline fill="#1F4286" points="226.359,135.43 229.883,133.381 229.897,133.391 226.374,135.439 226.359,135.43 					"/>
					<path fill="#20438A" d="M226.374,135.439l3.523-2.049c0.006,0.004,0.011,0.008,0.016,0.012l-3.523,2.048
						C226.384,135.446,226.379,135.442,226.374,135.439"/>
					<path fill="#21458D" d="M226.39,135.45l3.523-2.048c0.006,0.004,0.011,0.008,0.017,0.012l-3.524,2.048
						C226.4,135.458,226.395,135.454,226.39,135.45"/>
					<path fill="#214690" d="M226.405,135.462l3.524-2.048c0.006,0.005,0.012,0.01,0.017,0.015l-3.523,2.048
						C226.417,135.472,226.411,135.467,226.405,135.462"/>
					<path fill="#224893" d="M226.423,135.477l3.523-2.048c0.007,0.005,0.013,0.011,0.019,0.016l-3.523,2.048
						C226.435,135.487,226.429,135.481,226.423,135.477"/>
					<path fill="#234996" d="M226.441,135.492l3.523-2.048c0.007,0.006,0.014,0.012,0.02,0.019l-3.523,2.048
						C226.454,135.504,226.447,135.498,226.441,135.492"/>
					<path fill="#244B9A" d="M226.461,135.511l3.523-2.048c0.007,0.006,0.014,0.013,0.021,0.021l-3.523,2.048
						C226.475,135.523,226.468,135.518,226.461,135.511"/>
					<path fill="#244C9D" d="M226.481,135.531l3.523-2.048c0.007,0.007,0.015,0.015,0.021,0.022l-3.523,2.048
						C226.495,135.546,226.488,135.538,226.481,135.531"/>
					<path fill="#254EA0" d="M226.503,135.554l3.523-2.048c0.008,0.008,0.016,0.017,0.023,0.025l-3.523,2.048
						C226.519,135.57,226.511,135.562,226.503,135.554"/>
					<path fill="#3F63AB" d="M226.526,135.579l3.523-2.048c0.009,0.01,0.018,0.021,0.026,0.03l-3.524,2.048
						C226.543,135.6,226.534,135.589,226.526,135.579"/>
					<path fill="#4A6CB0" d="M226.552,135.609l3.524-2.048c0.01,0.013,0.02,0.025,0.03,0.038l-3.524,2.048
						C226.572,135.635,226.563,135.622,226.552,135.609"/>
					<path fill="#5273B4" d="M226.582,135.647l3.524-2.048c0.012,0.016,0.024,0.031,0.037,0.048l-3.524,2.048
						C226.606,135.679,226.595,135.663,226.582,135.647"/>
					<path fill="#5978B7" d="M226.619,135.695l3.524-2.048c0,0.001,0.001,0.002,0.001,0.003c0.093,0.125,0.186,0.249,0.277,0.374
						l-3.523,2.048c-0.093-0.125-0.186-0.249-0.277-0.374C226.62,135.697,226.62,135.696,226.619,135.695"/>
					<path fill="#5273B4" d="M226.898,136.072l3.523-2.048c0.98,1.323,1.976,2.643,2.96,3.956l-3.524,2.049
						C228.873,138.715,227.879,137.396,226.898,136.072"/>
				</g>
			</g>
			<g>
				<path fill="#142A56" d="M226.342,135.419c0.087,0.05,0.176,0.14,0.279,0.279c1.07,1.448,2.159,2.894,3.236,4.331
					c0.083,0.113,0.165,0.228,0.28,0.389c-0.845,0.357-1.651,0.723-2.478,1.046c-1.224,0.484-2.49,0.893-3.688,1.428
					c-1.051,0.46-2.202,0.256-3.453-0.467c-0.464-0.269-0.942-0.607-1.435-1.011c-1.385-1.138-2.698-2.439-3.953-3.914l-0.096-0.136
					c0.063-0.029,0.121-0.055,0.186-0.062c3.615-0.64,7.224-1.282,10.839-1.929C226.162,135.355,226.251,135.366,226.342,135.419z"
					/>
			</g>
			<g enable-background="new    ">
				<defs>
					<path id="SVGID_7_" enable-background="new    " d="M229.857,140.029l3.524-2.049c0.083,0.114,0.165,0.229,0.279,0.39
						l-3.523,2.048C230.022,140.257,229.94,140.143,229.857,140.029z"/>
				</defs>
				<clipPath id="SVGID_8_">
					<use xlink:href="#SVGID_7_"  overflow="visible"/>
				</clipPath>
				<g clip-path="url(#SVGID_8_)" enable-background="new    ">
					<path fill="#5978B7" d="M229.857,140.029l3.524-2.049c0.083,0.114,0.165,0.229,0.279,0.39l-3.523,2.048
						C230.022,140.257,229.94,140.143,229.857,140.029"/>
				</g>
			</g>
			<g enable-background="new    ">
				<defs>
					<path id="SVGID_9_" enable-background="new    " d="M238.179,145.829l3.523-2.048c-0.612,0.355-0.989,1.105-0.995,2.177
						c-0.013,2.139,1.547,4.832,3.437,5.931c1.045,0.606,1.979,0.678,2.635,0.297c-0.053,0.03-0.123,0.071-0.176,0.103
						c-0.105,0.061-0.247,0.143-0.353,0.204c-0.998,0.58-1.997,1.161-2.995,1.741c-0.656,0.381-1.59,0.31-2.635-0.297
						c-1.891-1.099-3.449-3.792-3.438-5.931C237.189,146.935,237.566,146.185,238.179,145.829z"/>
				</defs>
				<clipPath id="SVGID_10_">
					<use xlink:href="#SVGID_9_"  overflow="visible"/>
				</clipPath>
				<g clip-path="url(#SVGID_10_)" enable-background="new    ">
					<path fill="#132953" d="M238.179,145.829l3.523-2.048c-0.235,0.137-0.437,0.332-0.595,0.582l-3.523,2.048
						C237.742,146.161,237.942,145.966,238.179,145.829"/>
					<path fill="#142A56" d="M237.584,146.411l3.523-2.048c-0.045,0.071-0.087,0.146-0.125,0.227l-3.523,2.048
						C237.497,146.558,237.538,146.482,237.584,146.411"/>
					<path fill="#152C5A" d="M237.459,146.638l3.523-2.048c-0.029,0.063-0.058,0.129-0.083,0.196l-3.523,2.048
						C237.401,146.767,237.429,146.701,237.459,146.638"/>
					<path fill="#152D5D" d="M237.376,146.834l3.524-2.048c-0.021,0.058-0.041,0.117-0.06,0.178l-3.523,2.048
						C237.335,146.951,237.354,146.892,237.376,146.834"/>
					<path fill="#162F60" d="M237.317,147.012l3.523-2.048c-0.017,0.057-0.031,0.114-0.045,0.173l-3.524,2.048
						C237.285,147.126,237.301,147.068,237.317,147.012"/>
					<path fill="#173063" d="M237.271,147.185l3.524-2.048c-0.013,0.055-0.023,0.111-0.034,0.169l-3.523,2.048
						C237.248,147.296,237.26,147.24,237.271,147.185"/>
					<path fill="#183266" d="M237.238,147.354l3.523-2.048c-0.009,0.053-0.017,0.107-0.023,0.162l-3.524,2.048
						C237.221,147.461,237.229,147.406,237.238,147.354"/>
					<path fill="#18336A" d="M237.214,147.516l3.524-2.048c-0.007,0.055-0.013,0.109-0.018,0.166l-3.524,2.048
						C237.201,147.625,237.207,147.57,237.214,147.516"/>
					<path fill="#19356D" d="M237.196,147.682l3.524-2.048c-0.004,0.053-0.008,0.106-0.01,0.161l-3.524,2.048
						C237.189,147.788,237.192,147.734,237.196,147.682"/>
					<path fill="#1A3770" d="M237.187,147.843l3.524-2.048c-0.002,0.054-0.004,0.107-0.004,0.163c0,0.001,0,0.002,0,0.003
						l-3.524,2.048c0-0.001,0-0.002,0-0.003C237.184,147.95,237.185,147.896,237.187,147.843"/>
					<path fill="#1B3873" d="M237.183,148.009l3.524-2.048c0,0.052,0,0.104,0.002,0.156l-3.524,2.048
						C237.184,148.113,237.183,148.061,237.183,148.009"/>
					<path fill="#1B3A76" d="M237.185,148.165l3.524-2.048c0.001,0.053,0.004,0.105,0.007,0.158l-3.523,2.048
						C237.188,148.271,237.187,148.218,237.185,148.165"/>
					<path fill="#1C3B7A" d="M237.192,148.323l3.523-2.048c0.004,0.054,0.008,0.106,0.013,0.16l-3.523,2.048
						C237.2,148.43,237.195,148.377,237.192,148.323"/>
					<path fill="#1D3D7D" d="M237.205,148.483l3.523-2.048c0.006,0.054,0.012,0.107,0.019,0.161l-3.524,2.048
						C237.216,148.591,237.21,148.537,237.205,148.483"/>
					<path fill="#1E3E80" d="M237.223,148.645l3.524-2.048c0.007,0.056,0.015,0.111,0.023,0.167l-3.523,2.048
						C237.238,148.756,237.23,148.7,237.223,148.645"/>
					<path fill="#1E4083" d="M237.247,148.812l3.523-2.048c0.009,0.057,0.019,0.112,0.029,0.169l-3.524,2.048
						C237.266,148.924,237.256,148.868,237.247,148.812"/>
					<path fill="#1F4286" d="M237.275,148.98l3.524-2.048c0.011,0.058,0.022,0.116,0.035,0.174l-3.523,2.048
						C237.299,149.097,237.287,149.038,237.275,148.98"/>
					<path fill="#20438A" d="M237.312,149.154l3.523-2.048c0.013,0.059,0.026,0.117,0.041,0.177l-3.523,2.048
						C237.338,149.271,237.324,149.213,237.312,149.154"/>
					<path fill="#21458D" d="M237.353,149.331l3.523-2.048c0.015,0.06,0.031,0.119,0.048,0.18l-3.524,2.048
						C237.383,149.45,237.367,149.391,237.353,149.331"/>
					<path fill="#214690" d="M237.399,149.511l3.524-2.048c0.017,0.06,0.034,0.119,0.052,0.18l-3.523,2.048
						C237.434,149.63,237.416,149.57,237.399,149.511"/>
					<path fill="#224893" d="M237.452,149.69l3.523-2.048c0.019,0.059,0.037,0.117,0.057,0.176l-3.523,2.048
						C237.488,149.808,237.47,149.749,237.452,149.69"/>
					<path fill="#234996" d="M237.509,149.866l3.523-2.048c0.02,0.059,0.04,0.117,0.062,0.175l-3.524,2.048
						C237.549,149.983,237.528,149.925,237.509,149.866"/>
					<path fill="#244B9A" d="M237.569,150.041l3.524-2.048c0.021,0.057,0.041,0.112,0.063,0.168l-3.523,2.048
						C237.611,150.153,237.59,150.098,237.569,150.041"/>
					<path fill="#244C9D" d="M237.633,150.209l3.523-2.048c0.022,0.057,0.045,0.112,0.067,0.168l-3.523,2.048
						C237.677,150.321,237.654,150.266,237.633,150.209"/>
					<path fill="#254EA0" d="M237.7,150.377l3.523-2.048c0.023,0.056,0.047,0.11,0.071,0.166l-3.523,2.048
						C237.747,150.488,237.723,150.433,237.7,150.377"/>
					<path fill="#3F63AB" d="M237.771,150.543l3.523-2.048c0.024,0.056,0.05,0.11,0.076,0.166l-3.524,2.048
						C237.821,150.654,237.796,150.599,237.771,150.543"/>
					<path fill="#4A6CB0" d="M237.847,150.709l3.524-2.048c0.028,0.062,0.059,0.123,0.089,0.185l-3.523,2.048
						C237.905,150.832,237.876,150.771,237.847,150.709"/>
					<path fill="#5273B4" d="M237.937,150.894l3.523-2.048c0.034,0.069,0.07,0.138,0.106,0.205l-3.524,2.048
						C238.006,151.031,237.971,150.963,237.937,150.894"/>
					<path fill="#5978B7" d="M238.042,151.099l3.524-2.048c0.054,0.101,0.109,0.201,0.167,0.3l-3.523,2.048
						C238.152,151.3,238.096,151.199,238.042,151.099"/>
					<path fill="#5F7DB9" d="M238.21,151.398l3.523-2.048c0.086,0.146,0.177,0.29,0.271,0.431l-3.523,2.049
						C238.386,151.688,238.296,151.545,238.21,151.398"/>
					<path fill="#5978B7" d="M238.48,151.83l3.523-2.049c0.071,0.107,0.146,0.213,0.222,0.315l-3.524,2.048
						C238.625,152.042,238.552,151.937,238.48,151.83"/>
					<path fill="#5273B4" d="M238.701,152.145l3.524-2.048c0.051,0.069,0.103,0.137,0.155,0.204l-3.524,2.048
						C238.804,152.281,238.752,152.214,238.701,152.145"/>
					<path fill="#4A6CB0" d="M238.856,152.349l3.524-2.048c0.044,0.057,0.09,0.112,0.135,0.167l-3.523,2.048
						C238.946,152.461,238.901,152.405,238.856,152.349"/>
					<path fill="#3F63AB" d="M238.992,152.516l3.523-2.048c0.045,0.054,0.09,0.106,0.136,0.158l-3.524,2.048
						C239.081,152.622,239.036,152.569,238.992,152.516"/>
					<path fill="#254EA0" d="M239.127,152.674l3.524-2.048c0.044,0.051,0.09,0.102,0.136,0.151l-3.524,2.048
						C239.217,152.775,239.172,152.725,239.127,152.674"/>
					<path fill="#244C9D" d="M239.263,152.825l3.524-2.048c0.047,0.051,0.095,0.101,0.143,0.149l-3.523,2.048
						C239.357,152.926,239.311,152.876,239.263,152.825"/>
					<path fill="#244B9A" d="M239.406,152.975l3.523-2.048c0.049,0.049,0.098,0.098,0.146,0.145l-3.523,2.048
						C239.503,153.072,239.454,153.023,239.406,152.975"/>
					<path fill="#234996" d="M239.553,153.119l3.523-2.048c0.051,0.049,0.102,0.096,0.152,0.142l-3.523,2.048
						C239.653,153.215,239.603,153.168,239.553,153.119"/>
					<path fill="#224893" d="M239.705,153.261l3.523-2.048c0.051,0.046,0.102,0.091,0.153,0.134l-3.523,2.048
						C239.807,153.352,239.756,153.307,239.705,153.261"/>
					<path fill="#214690" d="M239.858,153.395l3.523-2.048c0.051,0.043,0.103,0.085,0.153,0.126l-3.523,2.048
						C239.96,153.479,239.909,153.438,239.858,153.395"/>
					<path fill="#21458D" d="M240.012,153.521l3.523-2.048c0.05,0.039,0.1,0.077,0.15,0.114l-3.524,2.048
						C240.111,153.598,240.062,153.56,240.012,153.521"/>
					<path fill="#20438A" d="M240.161,153.635l3.524-2.048c0.049,0.036,0.099,0.071,0.148,0.105l-3.523,2.048
						C240.261,153.706,240.211,153.671,240.161,153.635"/>
					<path fill="#1F4286" d="M240.311,153.74l3.523-2.048c0.048,0.032,0.096,0.064,0.145,0.095l-3.524,2.048
						C240.406,153.805,240.358,153.773,240.311,153.74"/>
					<path fill="#1E4083" d="M240.454,153.835l3.524-2.048c0.048,0.031,0.096,0.061,0.144,0.089l-3.524,2.048
						C240.55,153.896,240.502,153.865,240.454,153.835"/>
					<path fill="#1E3E80" d="M240.598,153.924l3.524-2.048c0.007,0.004,0.015,0.008,0.021,0.013
						c0.046,0.026,0.092,0.052,0.137,0.076l-3.523,2.048c-0.046-0.024-0.091-0.05-0.137-0.076
						C240.612,153.932,240.605,153.928,240.598,153.924"/>
					<path fill="#1D3D7D" d="M240.757,154.013l3.523-2.048c0.054,0.029,0.106,0.057,0.159,0.083l-3.523,2.048
						C240.863,154.069,240.81,154.042,240.757,154.013"/>
					<path fill="#1C3B7A" d="M240.916,154.096l3.523-2.048c0.053,0.025,0.104,0.05,0.156,0.073l-3.524,2.048
						C241.021,154.146,240.968,154.121,240.916,154.096"/>
					<path fill="#1B3A76" d="M241.071,154.169l3.524-2.048c0.052,0.023,0.104,0.045,0.154,0.065l-3.524,2.048
						C241.175,154.214,241.123,154.192,241.071,154.169"/>
					<path fill="#1B3873" d="M241.226,154.234l3.524-2.048c0.052,0.021,0.103,0.04,0.153,0.058l-3.523,2.048
						C241.329,154.274,241.277,154.255,241.226,154.234"/>
					<path fill="#1A3770" d="M241.38,154.292l3.523-2.048c0.052,0.019,0.103,0.035,0.153,0.05l-3.524,2.048
						C241.482,154.327,241.431,154.311,241.38,154.292"/>
					<path fill="#19356D" d="M241.532,154.342l3.524-2.048c0.052,0.016,0.104,0.03,0.154,0.043l-3.524,2.048
						C241.636,154.372,241.584,154.357,241.532,154.342"/>
					<path fill="#18336A" d="M241.687,154.385l3.524-2.048c0.053,0.013,0.104,0.024,0.156,0.034l-3.523,2.049
						C241.792,154.409,241.739,154.397,241.687,154.385"/>
					<path fill="#183266" d="M241.844,154.42l3.523-2.049c0.054,0.011,0.106,0.02,0.158,0.026l-3.524,2.048
						C241.949,154.438,241.896,154.43,241.844,154.42"/>
					<path fill="#173063" d="M242.001,154.445l3.524-2.048c0.057,0.008,0.111,0.014,0.167,0.018l-3.524,2.048
						C242.113,154.459,242.058,154.453,242.001,154.445"/>
					<path fill="#162F60" d="M242.168,154.463l3.524-2.048c0.058,0.004,0.115,0.006,0.171,0.005l-3.523,2.049
						C242.283,154.469,242.226,154.467,242.168,154.463"/>
					<path fill="#152D5D" d="M242.34,154.469l3.523-2.049c0.062,0,0.122-0.003,0.181-0.008l-3.523,2.048
						C242.461,154.465,242.4,154.468,242.34,154.469"/>
					<path fill="#152C5A" d="M242.521,154.46l3.523-2.048c0.07-0.007,0.14-0.017,0.206-0.029l-3.523,2.048
						C242.659,154.443,242.591,154.453,242.521,154.46"/>
					<path fill="#142A56" d="M242.727,154.431l3.523-2.048c0.083-0.017,0.164-0.038,0.241-0.065l-3.524,2.048
						C242.89,154.393,242.81,154.414,242.727,154.431"/>
					<path fill="#132953" d="M242.967,154.365l3.524-2.048c0.101-0.035,0.197-0.079,0.287-0.132l-3.523,2.048
						C243.164,154.286,243.068,154.33,242.967,154.365"/>
				</g>
			</g>
			<g enable-background="new    ">
				<defs>
					<path id="SVGID_11_" enable-background="new    " d="M234.133,138.684l3.524-2.048c0.872,1.437,1.719,2.844,2.578,4.259
						l-3.523,2.048C235.852,141.527,235.006,140.12,234.133,138.684z"/>
				</defs>
				<clipPath id="SVGID_12_">
					<use xlink:href="#SVGID_11_"  overflow="visible"/>
				</clipPath>
				<g clip-path="url(#SVGID_12_)" enable-background="new    ">
					<path fill="#5F7DB9" d="M234.133,138.684l3.524-2.048c0.872,1.437,1.719,2.844,2.578,4.259l-3.523,2.048
						C235.852,141.527,235.006,140.12,234.133,138.684"/>
				</g>
			</g>
			<g enable-background="new    ">
				<defs>
					<path id="SVGID_13_" enable-background="new    " d="M248.438,154.972c-1.175,0.683-2.35,1.365-3.524,2.048
						c0.716-0.416,1.232-1.167,1.49-2.228c0.064-0.271,0.11-0.553,0.162-0.84l3.524-2.048c-0.052,0.287-0.098,0.568-0.162,0.84
						C249.671,153.805,249.154,154.556,248.438,154.972z"/>
				</defs>
				<clipPath id="SVGID_14_">
					<use xlink:href="#SVGID_13_"  overflow="visible"/>
				</clipPath>
				<g clip-path="url(#SVGID_14_)" enable-background="new    ">
					<path fill="#173063" d="M246.566,153.952l3.524-2.048c-0.048,0.267-0.091,0.529-0.149,0.783l-3.523,2.048
						C246.476,154.481,246.519,154.219,246.566,153.952"/>
					<path fill="#162F60" d="M246.418,154.735l3.523-2.048c-0.004,0.019-0.009,0.038-0.013,0.057
						c-0.02,0.081-0.041,0.159-0.063,0.236l-3.523,2.048c0.022-0.077,0.043-0.155,0.063-0.236
						C246.409,154.773,246.413,154.754,246.418,154.735"/>
					<path fill="#152D5D" d="M246.342,155.028l3.523-2.048c-0.032,0.11-0.067,0.218-0.105,0.32l-3.524,2.048
						C246.273,155.246,246.309,155.139,246.342,155.028"/>
					<path fill="#152C5A" d="M246.235,155.349l3.524-2.048c-0.044,0.118-0.092,0.231-0.144,0.34l-3.524,2.048
						C246.144,155.58,246.191,155.467,246.235,155.349"/>
					<path fill="#142A56" d="M246.092,155.688l3.524-2.048c-0.065,0.136-0.136,0.265-0.213,0.386l-3.523,2.048
						C245.956,155.953,246.027,155.824,246.092,155.688"/>
					<path fill="#132953" d="M245.88,156.074l3.523-2.048c-0.259,0.407-0.584,0.724-0.965,0.945l-3.524,2.048
						C245.295,156.798,245.62,156.481,245.88,156.074"/>
				</g>
			</g>
			<g enable-background="new    ">
				<defs>
					<path id="SVGID_15_" enable-background="new    " d="M238.564,131.746l-3.523,2.048c-0.029,0.017-0.067,0.027-0.114,0.034
						c-1.074,0.174-2.143,0.357-3.205,0.567c-0.082,0.017-0.149,0.009-0.213-0.027c-0.075-0.043-0.145-0.128-0.228-0.264
						c-0.993-1.624-1.979-3.252-2.992-4.843c-1.477-2.322-2.974-4.619-4.47-6.924c-0.791-1.213-1.706-2.006-2.687-2.572
						c-0.164-0.094-0.33-0.183-0.496-0.266c-1.31-0.66-2.581-1.063-3.821-1.301c-0.581-0.123-1.15-0.18-1.783-0.273l3.524-2.048
						c0.633,0.094,1.201,0.15,1.783,0.272c1.24,0.238,2.512,0.643,3.82,1.303c0.167,0.082,0.333,0.171,0.496,0.266
						c0.981,0.566,1.896,1.358,2.688,2.571c1.496,2.304,2.992,4.602,4.47,6.924c1.012,1.591,1.999,3.219,2.991,4.843
						c0.083,0.135,0.153,0.221,0.229,0.264c0.063,0.036,0.131,0.044,0.212,0.027c1.063-0.21,2.131-0.394,3.206-0.567
						C238.498,131.773,238.535,131.763,238.564,131.746z"/>
				</defs>
				<clipPath id="SVGID_16_">
					<use xlink:href="#SVGID_15_"  overflow="visible"/>
				</clipPath>
				<g clip-path="url(#SVGID_16_)" enable-background="new    ">
					<path fill="#183266" d="M215.032,117.926l3.524-2.048c0.131,0.02,0.26,0.038,0.387,0.055l-3.523,2.048
						C215.293,117.963,215.164,117.945,215.032,117.926"/>
					<path fill="#173063" d="M215.42,117.98l3.523-2.048c0.119,0.017,0.235,0.031,0.352,0.047l-3.524,2.048
						C215.654,118.012,215.538,117.996,215.42,117.98"/>
					<path fill="#183266" d="M215.771,118.027l3.524-2.048c0.307,0.042,0.606,0.085,0.907,0.144l-3.524,2.048
						C216.377,118.112,216.078,118.069,215.771,118.027"/>
					<path fill="#18336A" d="M216.678,118.171l3.524-2.048c0.036,0.007,0.073,0.014,0.108,0.021l-3.523,2.049
						C216.751,118.186,216.715,118.178,216.678,118.171"/>
					<path fill="#183266" d="M216.787,118.193l3.523-2.049c0.01,0.002,0.02,0.004,0.029,0.006c0.014,0.003,0.026,0.006,0.039,0.008
						l-3.523,2.049c-0.014-0.003-0.026-0.006-0.04-0.008C216.807,118.197,216.797,118.195,216.787,118.193"/>
					<path fill="#18336A" d="M216.855,118.207l3.523-2.049c0.254,0.05,0.51,0.106,0.767,0.171l-3.524,2.048
						C217.365,118.313,217.109,118.256,216.855,118.207"/>
					<path fill="#19356D" d="M217.621,118.377l3.524-2.048c0.224,0.056,0.449,0.118,0.676,0.187l-3.524,2.048
						C218.07,118.494,217.846,118.433,217.621,118.377"/>
					<path fill="#1A3770" d="M218.297,118.563l3.524-2.048c0.203,0.061,0.407,0.128,0.612,0.2l-3.523,2.048
						C218.705,118.691,218.5,118.625,218.297,118.563"/>
					<path fill="#1B3873" d="M218.91,118.764l3.523-2.048c0.189,0.066,0.379,0.138,0.569,0.214l-3.524,2.048
						C219.289,118.901,219.1,118.83,218.91,118.764"/>
					<path fill="#1B3A76" d="M219.479,118.978l3.524-2.048c0.179,0.071,0.357,0.147,0.537,0.228l-3.524,2.048
						C219.836,119.125,219.657,119.049,219.479,118.978"/>
					<path fill="#1C3B7A" d="M220.016,119.205l3.524-2.048c0.171,0.077,0.343,0.157,0.515,0.243l-3.523,2.047
						C220.358,119.363,220.188,119.281,220.016,119.205"/>
					<path fill="#1D3D7D" d="M220.531,119.447l3.523-2.047c0.035,0.018,0.07,0.035,0.105,0.053c0.096,0.047,0.191,0.097,0.287,0.148
						l-3.524,2.047c-0.095-0.051-0.19-0.1-0.286-0.148C220.602,119.482,220.566,119.465,220.531,119.447"/>
					<path fill="#1E3E80" d="M220.923,119.648l3.524-2.047c0.069,0.037,0.14,0.076,0.209,0.117c0.02,0.011,0.039,0.021,0.059,0.033
						l-3.523,2.049c-0.02-0.012-0.039-0.023-0.059-0.035C221.063,119.727,220.993,119.688,220.923,119.648"/>
					<path fill="#1E4083" d="M221.191,119.801l3.523-2.049c0.081,0.048,0.161,0.098,0.241,0.148l-3.524,2.047
						C221.352,119.896,221.271,119.848,221.191,119.801"/>
					<path fill="#1F4286" d="M221.432,119.947l3.524-2.047c0.075,0.047,0.15,0.097,0.225,0.147l-3.524,2.048
						C221.582,120.045,221.508,119.996,221.432,119.947"/>
					<path fill="#20438A" d="M221.656,120.096l3.524-2.048c0.071,0.049,0.142,0.099,0.212,0.151l-3.523,2.047
						C221.799,120.195,221.728,120.145,221.656,120.096"/>
					<path fill="#21458D" d="M221.869,120.246l3.523-2.047c0.067,0.049,0.135,0.101,0.201,0.152l-3.523,2.049
						C222.004,120.348,221.937,120.297,221.869,120.246"/>
					<path fill="#214690" d="M222.07,120.4l3.523-2.049c0.065,0.052,0.13,0.104,0.193,0.158l-3.523,2.048
						C222.199,120.504,222.135,120.451,222.07,120.4"/>
					<path fill="#224893" d="M222.264,120.558l3.523-2.048c0.062,0.052,0.123,0.105,0.184,0.16l-3.523,2.048
						C222.387,120.663,222.324,120.609,222.264,120.558"/>
					<path fill="#234996" d="M222.447,120.718l3.523-2.048c0.059,0.053,0.116,0.106,0.174,0.161l-3.523,2.048
						C222.563,120.824,222.506,120.77,222.447,120.718"/>
					<path fill="#244B9A" d="M222.621,120.879l3.523-2.048c0.055,0.053,0.109,0.106,0.163,0.161l-3.524,2.048
						C222.729,120.985,222.676,120.932,222.621,120.879"/>
					<path fill="#244C9D" d="M222.783,121.04l3.524-2.048c0.051,0.053,0.102,0.105,0.152,0.16l-3.523,2.048
						C222.886,121.146,222.835,121.092,222.783,121.04"/>
					<path fill="#254EA0" d="M222.937,121.2l3.523-2.048c0.048,0.052,0.097,0.105,0.144,0.159l-3.523,2.048
						C223.032,121.305,222.984,121.252,222.937,121.2"/>
					<path fill="#3F63AB" d="M223.08,121.359l3.523-2.048c0.047,0.054,0.093,0.106,0.139,0.162l-3.523,2.048
						C223.173,121.467,223.126,121.412,223.08,121.359"/>
					<path fill="#4A6CB0" d="M223.219,121.521l3.523-2.048c0.048,0.058,0.095,0.115,0.142,0.175l-3.523,2.048
						C223.313,121.637,223.266,121.578,223.219,121.521"/>
					<path fill="#5273B4" d="M223.36,121.696l3.523-2.048c0.052,0.066,0.104,0.135,0.155,0.203l-3.524,2.049
						C223.464,121.83,223.412,121.763,223.36,121.696"/>
					<path fill="#5978B7" d="M223.515,121.9l3.524-2.049c0.072,0.098,0.144,0.199,0.215,0.303l-3.524,2.049
						C223.659,122.099,223.588,121.998,223.515,121.9"/>
					<path fill="#5F7DB9" d="M223.729,122.203l3.524-2.049c0.029,0.045,0.06,0.09,0.09,0.136c1.496,2.304,2.992,4.602,4.47,6.924
						c1.012,1.591,1.999,3.219,2.991,4.843c0.018,0.027,0.033,0.053,0.049,0.076l-3.523,2.048c-0.016-0.023-0.032-0.049-0.049-0.076
						c-0.993-1.624-1.979-3.252-2.992-4.843c-1.477-2.322-2.974-4.619-4.47-6.924C223.79,122.292,223.76,122.247,223.729,122.203"/>
					<path fill="#5978B7" d="M231.33,134.181l3.523-2.048c0.011,0.015,0.021,0.028,0.03,0.042l-3.524,2.048
						C231.35,134.209,231.34,134.195,231.33,134.181"/>
					<path fill="#5273B4" d="M231.359,134.223l3.524-2.048c0.006,0.008,0.012,0.016,0.018,0.023l-3.523,2.048
						C231.372,134.238,231.365,134.23,231.359,134.223"/>
					<path fill="#4A6CB0" d="M231.378,134.246l3.523-2.048c0.005,0.006,0.01,0.012,0.015,0.018l-3.524,2.048
						C231.387,134.258,231.382,134.252,231.378,134.246"/>
					<polyline fill="#3F63AB" points="231.392,134.264 234.916,132.216 234.928,132.23 231.404,134.278 231.392,134.264 					"/>
					<polyline fill="#254EA0" points="231.404,134.278 234.928,132.23 234.939,132.243 231.416,134.291 231.404,134.278 					"/>
					<polyline fill="#244C9D" points="231.416,134.291 234.939,132.243 234.951,132.255 231.428,134.303 231.416,134.291 					"/>
					<polyline fill="#244B9A" points="231.428,134.303 234.951,132.255 234.962,132.266 231.438,134.313 231.428,134.303 					"/>
					<polyline fill="#234996" points="231.438,134.313 234.962,132.266 234.973,132.276 231.449,134.324 231.438,134.313 					"/>
					<polyline fill="#224893" points="231.449,134.324 234.973,132.276 234.983,132.285 231.46,134.333 231.449,134.324 					"/>
					<polyline fill="#214690" points="231.46,134.333 234.983,132.285 234.994,132.293 231.47,134.342 231.46,134.333 					"/>
					<polyline fill="#21458D" points="231.47,134.342 234.994,132.293 235.004,132.301 231.479,134.349 231.47,134.342 					"/>
					<polyline fill="#20438A" points="231.479,134.349 235.004,132.301 235.013,132.308 231.489,134.355 231.479,134.349 					"/>
					<polyline fill="#1F4286" points="231.489,134.355 235.013,132.308 235.022,132.313 231.498,134.361 231.489,134.355 					"/>
					<polyline fill="#1E4083" points="231.498,134.361 235.022,132.313 235.031,132.319 231.507,134.367 231.498,134.361 					"/>
					<polyline fill="#1E3E80" points="231.507,134.367 235.031,132.319 235.033,132.32 235.04,132.324 231.516,134.372 
						231.509,134.368 231.507,134.367 					"/>
					<polyline fill="#1D3D7D" points="231.516,134.372 235.04,132.324 235.049,132.329 231.525,134.377 231.516,134.372 					"/>
					<polyline fill="#1C3B7A" points="231.525,134.377 235.049,132.329 235.059,132.333 231.535,134.381 231.525,134.377 					"/>
					<polyline fill="#1B3A76" points="231.535,134.381 235.059,132.333 235.068,132.338 231.544,134.386 231.535,134.381 					"/>
					<polyline fill="#1B3873" points="231.544,134.386 235.068,132.338 235.078,132.342 231.555,134.39 231.544,134.386 					"/>
					<polyline fill="#1A3770" points="231.555,134.39 235.078,132.342 235.09,132.345 231.565,134.393 231.555,134.39 					"/>
					<polyline fill="#19356D" points="231.565,134.393 235.09,132.345 235.102,132.349 231.577,134.396 231.565,134.393 					"/>
					<polyline fill="#18336A" points="231.577,134.396 235.102,132.349 235.114,132.352 231.591,134.399 231.577,134.396 					"/>
					<polyline fill="#183266" points="231.591,134.399 235.114,132.352 235.129,132.354 231.605,134.401 231.591,134.399 					"/>
					<path fill="#173063" d="M231.605,134.401l3.523-2.048c0.006,0.001,0.012,0.002,0.018,0.002l-3.523,2.048
						C231.617,134.403,231.611,134.402,231.605,134.401"/>
					<path fill="#162F60" d="M231.623,134.403l3.523-2.048c0.008,0,0.015,0.001,0.021,0.001l-3.523,2.048
						C231.637,134.404,231.63,134.404,231.623,134.403"/>
					<path fill="#152D5D" d="M231.645,134.404l3.523-2.048c0.01,0,0.02-0.001,0.028-0.002l-3.523,2.048
						C231.663,134.403,231.653,134.404,231.645,134.404"/>
					<path fill="#152C5A" d="M231.673,134.402l3.523-2.048c0.016-0.001,0.032-0.004,0.049-0.007l-3.524,2.048
						C231.704,134.398,231.688,134.401,231.673,134.402"/>
					<path fill="#142A56" d="M231.721,134.396l3.524-2.048l0,0c0.013-0.003,0.025-0.005,0.038-0.008l-3.524,2.048
						C231.746,134.391,231.734,134.393,231.721,134.396L231.721,134.396"/>
					<path fill="#152C5A" d="M231.759,134.388l3.524-2.048c1.05-0.206,2.105-0.388,3.168-0.56c0.01-0.001,0.019-0.003,0.027-0.005
						l-3.524,2.048c-0.009,0.002-0.018,0.004-0.027,0.005C233.865,134,232.809,134.182,231.759,134.388"/>
					<path fill="#142A56" d="M234.954,133.823l3.524-2.048c0.018-0.003,0.033-0.007,0.047-0.012l-3.523,2.048
						C234.987,133.816,234.972,133.82,234.954,133.823"/>
					<path fill="#132953" d="M235.002,133.812l3.523-2.048c0.015-0.006,0.027-0.012,0.039-0.018l-3.523,2.048
						C235.029,133.801,235.016,133.806,235.002,133.812"/>
				</g>
			</g>
			<g enable-background="new    ">
				<defs>
					<path id="SVGID_17_" enable-background="new    " d="M246.569,152.889l3.524-2.048c-0.001,0.359-0.002,0.712-0.003,1.063
						l-3.524,2.048C246.567,153.601,246.568,153.248,246.569,152.889z"/>
				</defs>
				<clipPath id="SVGID_18_">
					<use xlink:href="#SVGID_17_"  overflow="visible"/>
				</clipPath>
				<g clip-path="url(#SVGID_18_)" enable-background="new    ">
					<path fill="#1B3873" d="M246.569,152.889l3.524-2.048c-0.001,0.359-0.002,0.712-0.003,1.063l-3.524,2.048
						C246.567,153.601,246.568,153.248,246.569,152.889"/>
				</g>
			</g>
			<g enable-background="new    ">
				<defs>
					<path id="SVGID_19_" enable-background="new    " d="M236.712,142.942l3.523-2.048c0.967-0.413,2.06-0.347,3.312,0.185
						c0.25,0.105,0.5,0.231,0.748,0.374c2.512,1.45,4.864,4.755,5.56,7.979c0.102,0.478,0.164,0.939,0.239,1.409l-3.524,2.048
						c-0.075-0.47-0.138-0.932-0.238-1.409c-0.695-3.224-3.048-6.528-5.561-7.979c-0.248-0.143-0.497-0.269-0.747-0.374
						C238.771,142.596,237.678,142.529,236.712,142.942z"/>
				</defs>
				<clipPath id="SVGID_20_">
					<use xlink:href="#SVGID_19_"  overflow="visible"/>
				</clipPath>
				<g clip-path="url(#SVGID_20_)" enable-background="new    ">
					<path fill="#132953" d="M236.712,142.942l3.523-2.048c0.069-0.029,0.139-0.057,0.209-0.081l-3.524,2.048
						C236.85,142.886,236.78,142.913,236.712,142.942"/>
					<path fill="#142A56" d="M236.92,142.861l3.524-2.048c0.146-0.052,0.297-0.092,0.449-0.122l-3.523,2.048
						C237.217,142.77,237.067,142.81,236.92,142.861"/>
					<path fill="#152C5A" d="M237.37,142.739l3.523-2.048c0.116-0.023,0.233-0.04,0.353-0.051l-3.523,2.048
						C237.604,142.699,237.485,142.716,237.37,142.739"/>
					<path fill="#152D5D" d="M237.723,142.688l3.523-2.048c0.102-0.009,0.204-0.014,0.308-0.014l-3.523,2.048
						C237.926,142.675,237.824,142.68,237.723,142.688"/>
					<path fill="#162F60" d="M238.03,142.675l3.523-2.048c0.094-0.001,0.188,0.003,0.282,0.009l-3.523,2.048
						C238.217,142.678,238.123,142.674,238.03,142.675"/>
					<path fill="#173063" d="M238.313,142.684l3.523-2.048c0.089,0.007,0.179,0.016,0.269,0.028l-3.523,2.048
						C238.49,142.699,238.401,142.69,238.313,142.684"/>
					<path fill="#183266" d="M238.581,142.712l3.523-2.048c0.086,0.012,0.172,0.025,0.26,0.043l-3.524,2.048
						C238.753,142.737,238.666,142.724,238.581,142.712"/>
					<path fill="#18336A" d="M238.84,142.755l3.524-2.048c0.085,0.017,0.17,0.035,0.257,0.057l-3.524,2.048
						C239.011,142.79,238.925,142.771,238.84,142.755"/>
					<path fill="#19356D" d="M239.097,142.812l3.524-2.048c0.085,0.021,0.171,0.045,0.257,0.071l-3.523,2.048
						C239.268,142.856,239.182,142.833,239.097,142.812"/>
					<path fill="#1A3770" d="M239.354,142.883l3.523-2.048c0.087,0.026,0.174,0.055,0.262,0.086l-3.524,2.048
						C239.527,142.938,239.44,142.909,239.354,142.883"/>
					<path fill="#1B3873" d="M239.615,142.969l3.524-2.048c0.09,0.031,0.182,0.066,0.273,0.103l-3.523,2.049
						C239.797,143.035,239.706,143,239.615,142.969"/>
					<path fill="#1B3A76" d="M239.89,143.072l3.523-2.049c0.045,0.019,0.089,0.037,0.134,0.056c0.041,0.018,0.081,0.035,0.122,0.053
						l-3.524,2.048c-0.04-0.018-0.081-0.035-0.121-0.053C239.979,143.108,239.934,143.09,239.89,143.072"/>
					<path fill="#1C3B7A" d="M240.145,143.18l3.524-2.048c0.073,0.033,0.146,0.067,0.22,0.104l-3.523,2.048
						C240.292,143.248,240.219,143.213,240.145,143.18"/>
					<path fill="#1D3D7D" d="M240.365,143.284l3.523-2.048c0.076,0.037,0.151,0.076,0.227,0.116l-3.524,2.048
						C240.516,143.36,240.44,143.321,240.365,143.284"/>
					<path fill="#1E3E80" d="M240.591,143.4l3.524-2.048c0.06,0.033,0.12,0.066,0.18,0.101c0.018,0.011,0.036,0.021,0.054,0.032
						l-3.523,2.048c-0.019-0.011-0.036-0.021-0.055-0.032C240.711,143.467,240.651,143.434,240.591,143.4"/>
					<path fill="#1E4083" d="M240.825,143.533l3.523-2.048c0.078,0.046,0.156,0.093,0.233,0.143l-3.523,2.048
						C240.98,143.627,240.903,143.579,240.825,143.533"/>
					<path fill="#1F4286" d="M241.059,143.676l3.523-2.048c0.081,0.051,0.16,0.104,0.24,0.159l-3.523,2.048
						C241.219,143.78,241.139,143.727,241.059,143.676"/>
					<path fill="#20438A" d="M241.299,143.835l3.523-2.048c0.082,0.056,0.163,0.113,0.244,0.174l-3.523,2.048
						C241.462,143.948,241.38,143.891,241.299,143.835"/>
					<path fill="#21458D" d="M241.543,144.009l3.523-2.048c0.086,0.063,0.171,0.127,0.255,0.193l-3.523,2.048
						C241.713,144.136,241.628,144.071,241.543,144.009"/>
					<path fill="#214690" d="M241.798,144.202l3.523-2.048c0.087,0.069,0.174,0.14,0.26,0.212l-3.524,2.048
						C241.971,144.342,241.885,144.271,241.798,144.202"/>
					<path fill="#224893" d="M242.057,144.414l3.524-2.048c0.088,0.074,0.175,0.15,0.261,0.229l-3.523,2.048
						C242.231,144.564,242.145,144.488,242.057,144.414"/>
					<path fill="#234996" d="M242.318,144.643l3.523-2.048c0.088,0.078,0.175,0.159,0.261,0.242l-3.523,2.048
						C242.492,144.802,242.406,144.721,242.318,144.643"/>
					<path fill="#244B9A" d="M242.579,144.885l3.523-2.048c0.085,0.081,0.169,0.164,0.252,0.249l-3.523,2.048
						C242.747,145.049,242.663,144.966,242.579,144.885"/>
					<path fill="#244C9D" d="M242.831,145.134l3.523-2.048c0.082,0.083,0.163,0.168,0.244,0.255l-3.524,2.048
						C242.994,145.303,242.913,145.217,242.831,145.134"/>
					<path fill="#254EA0" d="M243.074,145.389l3.524-2.048c0.079,0.086,0.157,0.173,0.234,0.261l-3.523,2.048
						C243.231,145.562,243.153,145.475,243.074,145.389"/>
					<path fill="#3F63AB" d="M243.31,145.649l3.523-2.048c0.077,0.088,0.153,0.177,0.229,0.268l-3.524,2.048
						C243.462,145.826,243.387,145.737,243.31,145.649"/>
					<path fill="#4A6CB0" d="M243.537,145.917l3.524-2.048c0.079,0.095,0.158,0.191,0.235,0.29l-3.524,2.048
						C243.695,146.108,243.617,146.012,243.537,145.917"/>
					<path fill="#5273B4" d="M243.772,146.207l3.524-2.048c0.086,0.109,0.171,0.222,0.255,0.334l-3.524,2.048
						C243.944,146.429,243.859,146.316,243.772,146.207"/>
					<path fill="#5978B7" d="M244.027,146.541l3.524-2.048c0.123,0.167,0.243,0.337,0.359,0.51l-3.524,2.048
						C244.271,146.878,244.15,146.708,244.027,146.541"/>
					<path fill="#5F7DB9" d="M244.387,147.051l3.524-2.048c0.165,0.245,0.323,0.497,0.474,0.754l-3.523,2.048
						C244.711,147.548,244.552,147.296,244.387,147.051"/>
					<path fill="#5978B7" d="M244.861,147.805l3.523-2.048c0.096,0.164,0.189,0.33,0.278,0.497l-3.523,2.048
						C245.05,148.135,244.957,147.969,244.861,147.805"/>
					<path fill="#5273B4" d="M245.14,148.302l3.523-2.048c0.062,0.115,0.121,0.23,0.179,0.346l-3.524,2.048
						C245.26,148.532,245.2,148.417,245.14,148.302"/>
					<path fill="#4A6CB0" d="M245.317,148.647l3.524-2.048c0.047,0.095,0.093,0.19,0.138,0.286l-3.524,2.048
						C245.411,148.838,245.364,148.742,245.317,148.647"/>
					<path fill="#3F63AB" d="M245.455,148.934l3.524-2.048c0.043,0.092,0.085,0.184,0.126,0.276l-3.523,2.048
						C245.541,149.117,245.499,149.025,245.455,148.934"/>
					<path fill="#254EA0" d="M245.582,149.21l3.523-2.048c0.039,0.089,0.078,0.178,0.115,0.268l-3.524,2.048
						C245.659,149.388,245.621,149.299,245.582,149.21"/>
					<path fill="#244C9D" d="M245.696,149.478l3.524-2.048c0.037,0.09,0.073,0.18,0.108,0.271l-3.524,2.048
						C245.77,149.657,245.733,149.567,245.696,149.478"/>
					<path fill="#244B9A" d="M245.805,149.748l3.524-2.048c0.035,0.091,0.069,0.182,0.103,0.272l-3.524,2.048
						C245.875,149.93,245.841,149.839,245.805,149.748"/>
					<path fill="#234996" d="M245.907,150.021l3.524-2.048c0.034,0.094,0.066,0.188,0.099,0.282l-3.524,2.048
						C245.975,150.209,245.941,150.114,245.907,150.021"/>
					<path fill="#224893" d="M246.006,150.303l3.524-2.048c0.031,0.095,0.062,0.19,0.091,0.285l-3.523,2.048
						C246.068,150.493,246.038,150.397,246.006,150.303"/>
					<path fill="#214690" d="M246.098,150.588l3.523-2.048c0.03,0.097,0.059,0.193,0.085,0.29l-3.523,2.049
						C246.155,150.781,246.127,150.685,246.098,150.588"/>
					<path fill="#21458D" d="M246.183,150.879l3.523-2.049c0.027,0.097,0.053,0.193,0.076,0.29l-3.523,2.048
						C246.234,151.071,246.209,150.975,246.183,150.879"/>
					<path fill="#20438A" d="M246.259,151.168l3.523-2.048c0.024,0.097,0.047,0.192,0.067,0.289l-3.523,2.048
						C246.305,151.36,246.282,151.265,246.259,151.168"/>
					<path fill="#1F4286" d="M246.326,151.457l3.523-2.048c0.002,0.008,0.003,0.015,0.005,0.022
						c0.019,0.089,0.036,0.177,0.053,0.265l-3.523,2.048c-0.017-0.088-0.034-0.176-0.053-0.265
						C246.329,151.472,246.327,151.465,246.326,151.457"/>
					<path fill="#1E4083" d="M246.384,151.744l3.523-2.048c0.035,0.187,0.065,0.371,0.095,0.556l-3.524,2.048
						C246.449,152.115,246.418,151.931,246.384,151.744"/>
					<path fill="#1E3E80" d="M246.478,152.3l3.524-2.048c0.027,0.172,0.053,0.344,0.08,0.517l-3.524,2.048
						C246.531,152.644,246.505,152.472,246.478,152.3"/>
					<path fill="#1E4083" d="M246.558,152.816l3.524-2.048c0.004,0.023,0.008,0.048,0.012,0.072l-3.524,2.048
						C246.565,152.864,246.562,152.84,246.558,152.816"/>
				</g>
			</g>
			<g enable-background="new    ">
				<defs>
					<path id="SVGID_21_" enable-background="new    " d="M238.216,130.732l3.523-2.048c-0.608,0.354-0.983,1.096-0.989,2.153
						c-0.013,2.192,1.54,4.856,3.494,5.984c1.012,0.584,1.915,0.648,2.559,0.274l-3.524,2.048c-0.643,0.374-1.547,0.311-2.559-0.274
						c-1.954-1.128-3.507-3.792-3.494-5.984C237.231,131.828,237.607,131.086,238.216,130.732z"/>
				</defs>
				<clipPath id="SVGID_22_">
					<use xlink:href="#SVGID_21_"  overflow="visible"/>
				</clipPath>
				<g clip-path="url(#SVGID_22_)" enable-background="new    ">
					<path fill="#132953" d="M238.216,130.732l3.523-2.048c-0.234,0.137-0.436,0.331-0.593,0.58l-3.524,2.048
						C237.78,131.063,237.98,130.869,238.216,130.732"/>
					<path fill="#142A56" d="M237.622,131.313l3.524-2.048c-0.045,0.07-0.086,0.146-0.124,0.226l-3.524,2.048
						C237.536,131.458,237.577,131.383,237.622,131.313"/>
					<path fill="#152C5A" d="M237.498,131.538l3.524-2.048c-0.03,0.063-0.058,0.127-0.083,0.195l-3.523,2.048
						C237.441,131.666,237.469,131.601,237.498,131.538"/>
					<path fill="#152D5D" d="M237.416,131.733l3.523-2.048c-0.021,0.057-0.04,0.114-0.058,0.175l-3.524,2.048
						C237.375,131.848,237.395,131.79,237.416,131.733"/>
					<path fill="#162F60" d="M237.357,131.908l3.524-2.048c-0.017,0.056-0.031,0.112-0.045,0.171l-3.523,2.048
						C237.327,132.021,237.342,131.964,237.357,131.908"/>
					<path fill="#173063" d="M237.313,132.079l3.523-2.048c-0.012,0.054-0.023,0.109-0.033,0.166l-3.523,2.048
						C237.29,132.188,237.301,132.133,237.313,132.079"/>
					<path fill="#183266" d="M237.28,132.245l3.523-2.048c-0.009,0.052-0.017,0.105-0.023,0.159l-3.524,2.048
						C237.263,132.351,237.271,132.297,237.28,132.245"/>
					<path fill="#18336A" d="M237.256,132.404l3.524-2.048c-0.007,0.054-0.013,0.107-0.017,0.163l-3.524,2.048
						C237.244,132.512,237.249,132.458,237.256,132.404"/>
					<path fill="#19356D" d="M237.239,132.567l3.524-2.048c-0.005,0.052-0.008,0.104-0.01,0.158l-3.524,2.048
						C237.231,132.672,237.235,132.619,237.239,132.567"/>
					<path fill="#1A3770" d="M237.229,132.726l3.524-2.048c-0.003,0.053-0.004,0.105-0.004,0.16c0,0.001,0,0.002,0,0.003
						l-3.524,2.048c0-0.001,0-0.002,0-0.003C237.227,132.831,237.228,132.778,237.229,132.726"/>
					<path fill="#1B3873" d="M237.226,132.889l3.524-2.048c-0.001,0.055,0,0.109,0.002,0.164l-3.524,2.048
						C237.227,132.998,237.226,132.943,237.226,132.889"/>
					<path fill="#1B3A76" d="M237.228,133.053l3.524-2.048c0.002,0.056,0.004,0.11,0.008,0.166l-3.524,2.048
						C237.232,133.163,237.229,133.108,237.228,133.053"/>
					<path fill="#1C3B7A" d="M237.235,133.219l3.524-2.048c0.003,0.055,0.008,0.11,0.013,0.166l-3.523,2.048
						C237.243,133.329,237.239,133.273,237.235,133.219"/>
					<path fill="#1D3D7D" d="M237.249,133.385l3.523-2.048c0.006,0.056,0.012,0.111,0.019,0.167l-3.523,2.048
						C237.26,133.496,237.254,133.44,237.249,133.385"/>
					<path fill="#1E3E80" d="M237.268,133.552l3.523-2.048c0.008,0.057,0.016,0.114,0.024,0.171l-3.523,2.048
						C237.283,133.666,237.274,133.608,237.268,133.552"/>
					<path fill="#1E4083" d="M237.292,133.723l3.523-2.048c0.009,0.058,0.02,0.115,0.03,0.173l-3.524,2.048
						C237.311,133.838,237.301,133.78,237.292,133.723"/>
					<path fill="#1F4286" d="M237.321,133.896l3.524-2.048c0.011,0.059,0.022,0.117,0.036,0.177l-3.524,2.048
						C237.345,134.014,237.332,133.954,237.321,133.896"/>
					<path fill="#20438A" d="M237.357,134.072l3.524-2.048c0.013,0.06,0.026,0.119,0.041,0.178l-3.523,2.048
						C237.384,134.191,237.37,134.132,237.357,134.072"/>
					<path fill="#21458D" d="M237.399,134.25l3.523-2.048c0.015,0.061,0.03,0.12,0.048,0.181l-3.524,2.048
						C237.43,134.371,237.414,134.311,237.399,134.25"/>
					<path fill="#214690" d="M237.446,134.431l3.524-2.048c0.017,0.06,0.033,0.12,0.052,0.18l-3.523,2.048
						C237.48,134.551,237.463,134.49,237.446,134.431"/>
					<path fill="#224893" d="M237.499,134.61l3.523-2.048c0.019,0.059,0.037,0.117,0.057,0.176l-3.524,2.048
						C237.535,134.728,237.517,134.669,237.499,134.61"/>
					<path fill="#234996" d="M237.555,134.786l3.524-2.048c0.02,0.058,0.039,0.115,0.061,0.173l-3.524,2.048
						C237.595,134.901,237.574,134.844,237.555,134.786"/>
					<path fill="#244B9A" d="M237.615,134.959l3.524-2.048c0.02,0.056,0.041,0.11,0.063,0.166l-3.524,2.048
						C237.656,135.07,237.636,135.015,237.615,134.959"/>
					<path fill="#244C9D" d="M237.678,135.125l3.524-2.048c0.021,0.055,0.043,0.11,0.065,0.165l-3.523,2.048
						C237.722,135.235,237.699,135.18,237.678,135.125"/>
					<path fill="#254EA0" d="M237.744,135.29l3.523-2.048c0.023,0.055,0.047,0.109,0.07,0.163l-3.523,2.048
						C237.79,135.399,237.767,135.345,237.744,135.29"/>
					<path fill="#3F63AB" d="M237.814,135.453l3.523-2.048c0.024,0.055,0.049,0.108,0.074,0.163l-3.523,2.048
						C237.863,135.562,237.838,135.508,237.814,135.453"/>
					<path fill="#4A6CB0" d="M237.889,135.616l3.523-2.048c0.028,0.061,0.059,0.121,0.088,0.182l-3.523,2.048
						C237.946,135.738,237.917,135.677,237.889,135.616"/>
					<path fill="#5273B4" d="M237.977,135.798l3.523-2.048c0.033,0.066,0.067,0.132,0.103,0.197l-3.524,2.048
						C238.043,135.93,238.01,135.864,237.977,135.798"/>
					<path fill="#5978B7" d="M238.078,135.995l3.524-2.048c0.049,0.094,0.101,0.186,0.153,0.276l-3.523,2.048
						C238.179,136.181,238.128,136.089,238.078,135.995"/>
					<path fill="#5F7DB9" d="M238.232,136.271l3.523-2.048c0.088,0.151,0.181,0.299,0.277,0.444l-3.523,2.048
						C238.412,136.57,238.32,136.423,238.232,136.271"/>
					<path fill="#5978B7" d="M238.51,136.716l3.523-2.048c0.07,0.104,0.144,0.209,0.219,0.311l-3.524,2.048
						C238.652,136.925,238.58,136.82,238.51,136.716"/>
					<path fill="#5273B4" d="M238.728,137.026l3.524-2.048c0.051,0.068,0.103,0.137,0.155,0.203l-3.524,2.048
						C238.83,137.163,238.778,137.095,238.728,137.026"/>
					<path fill="#4A6CB0" d="M238.883,137.229l3.524-2.048c0.043,0.056,0.088,0.11,0.133,0.164l-3.524,2.048
						C238.971,137.34,238.927,137.285,238.883,137.229"/>
					<path fill="#3F63AB" d="M239.016,137.394l3.524-2.048c0.045,0.054,0.09,0.107,0.136,0.159l-3.524,2.048
						C239.105,137.501,239.061,137.447,239.016,137.394"/>
					<path fill="#254EA0" d="M239.151,137.553l3.524-2.048c0.045,0.052,0.092,0.103,0.138,0.153l-3.523,2.048
						C239.243,137.655,239.197,137.604,239.151,137.553"/>
					<path fill="#244C9D" d="M239.29,137.706l3.523-2.048c0.048,0.051,0.096,0.102,0.145,0.15l-3.524,2.049
						C239.386,137.808,239.337,137.757,239.29,137.706"/>
					<path fill="#244B9A" d="M239.434,137.857l3.524-2.049c0.05,0.051,0.1,0.101,0.15,0.148l-3.524,2.048
						C239.533,137.957,239.483,137.907,239.434,137.857"/>
					<path fill="#234996" d="M239.584,138.005l3.524-2.048c0.052,0.05,0.104,0.099,0.156,0.146l-3.524,2.048
						C239.688,138.104,239.636,138.055,239.584,138.005"/>
					<path fill="#224893" d="M239.74,138.15l3.524-2.048c0.053,0.048,0.105,0.095,0.159,0.14l-3.523,2.048
						C239.847,138.245,239.793,138.198,239.74,138.15"/>
					<path fill="#214690" d="M239.9,138.29l3.523-2.048c0.053,0.045,0.106,0.088,0.16,0.13l-3.524,2.048
						C240.006,138.378,239.953,138.335,239.9,138.29"/>
					<path fill="#21458D" d="M240.06,138.42l3.524-2.048c0.053,0.042,0.105,0.082,0.158,0.121l-3.523,2.048
						C240.165,138.502,240.112,138.462,240.06,138.42"/>
					<path fill="#20438A" d="M240.219,138.541l3.523-2.048c0.053,0.039,0.104,0.076,0.157,0.112l-3.523,2.048
						C240.323,138.617,240.271,138.58,240.219,138.541"/>
					<path fill="#1F4286" d="M240.376,138.653l3.523-2.048c0.052,0.035,0.103,0.069,0.154,0.102l-3.523,2.048
						C240.479,138.723,240.427,138.688,240.376,138.653"/>
					<path fill="#1E4083" d="M240.53,138.755l3.523-2.048c0.052,0.033,0.103,0.064,0.154,0.095l-3.523,2.048
						C240.633,138.819,240.581,138.788,240.53,138.755"/>
					<path fill="#1E3E80" d="M240.685,138.85l3.523-2.048c0.012,0.007,0.024,0.014,0.036,0.021c0.04,0.023,0.08,0.046,0.119,0.067
						l-3.523,2.048c-0.04-0.021-0.08-0.044-0.12-0.067C240.708,138.863,240.696,138.856,240.685,138.85"/>
					<path fill="#1D3D7D" d="M240.84,138.938l3.523-2.048c0.052,0.027,0.104,0.055,0.154,0.079l-3.524,2.049
						C240.942,138.992,240.892,138.965,240.84,138.938"/>
					<path fill="#1C3B7A" d="M240.993,139.018l3.524-2.049c0.051,0.025,0.101,0.049,0.15,0.071l-3.523,2.048
						C241.095,139.065,241.044,139.042,240.993,139.018"/>
					<path fill="#1B3A76" d="M241.145,139.088l3.523-2.048c0.051,0.022,0.1,0.044,0.149,0.063l-3.524,2.048
						C241.244,139.132,241.194,139.11,241.145,139.088"/>
					<path fill="#1B3873" d="M241.293,139.151l3.524-2.048c0.05,0.02,0.1,0.039,0.148,0.056l-3.523,2.048
						C241.393,139.19,241.343,139.171,241.293,139.151"/>
					<path fill="#1A3770" d="M241.442,139.207l3.523-2.048c0.05,0.018,0.099,0.034,0.147,0.048l-3.524,2.049
						C241.54,139.241,241.491,139.225,241.442,139.207"/>
					<path fill="#19356D" d="M241.589,139.256l3.524-2.049c0.051,0.016,0.101,0.029,0.15,0.042l-3.524,2.048
						C241.689,139.284,241.64,139.271,241.589,139.256"/>
					<path fill="#18336A" d="M241.739,139.297l3.524-2.048c0.051,0.013,0.101,0.023,0.15,0.033l-3.523,2.048
						C241.841,139.32,241.79,139.31,241.739,139.297"/>
					<path fill="#183266" d="M241.891,139.33l3.523-2.048c0.053,0.011,0.104,0.019,0.155,0.026l-3.523,2.048
						C241.994,139.35,241.942,139.341,241.891,139.33"/>
					<path fill="#173063" d="M242.046,139.356l3.523-2.048c0.055,0.007,0.108,0.013,0.161,0.016l-3.523,2.049
						C242.153,139.369,242.1,139.363,242.046,139.356"/>
					<path fill="#162F60" d="M242.207,139.373l3.523-2.049c0.056,0.004,0.111,0.006,0.165,0.006l-3.524,2.048
						C242.317,139.378,242.263,139.376,242.207,139.373"/>
					<path fill="#152D5D" d="M242.371,139.378l3.524-2.048c0.063,0,0.123-0.003,0.183-0.009l-3.523,2.048
						C242.494,139.375,242.434,139.378,242.371,139.378"/>
					<path fill="#152C5A" d="M242.555,139.369l3.523-2.048c0.069-0.006,0.137-0.016,0.202-0.029l-3.523,2.048
						C242.69,139.354,242.623,139.363,242.555,139.369"/>
					<path fill="#142A56" d="M242.757,139.34l3.523-2.048c0.084-0.017,0.164-0.038,0.241-0.065l-3.523,2.048
						C242.92,139.302,242.84,139.323,242.757,139.34"/>
					<path fill="#132953" d="M242.998,139.274l3.523-2.048c0.099-0.035,0.192-0.078,0.281-0.13l-3.524,2.048
						C243.189,139.196,243.096,139.239,242.998,139.274"/>
				</g>
			</g>
			<g enable-background="new    ">
				<defs>
					<path id="SVGID_23_" enable-background="new    " d="M248.454,139.869l-3.524,2.048c0.772-0.449,1.343-1.285,1.582-2.531
						c0.033-0.18,0.065-0.36,0.098-0.532l3.523-2.048c-0.032,0.172-0.064,0.353-0.097,0.532
						C249.797,138.584,249.227,139.42,248.454,139.869z"/>
				</defs>
				<clipPath id="SVGID_24_">
					<use xlink:href="#SVGID_23_"  overflow="visible"/>
				</clipPath>
				<g clip-path="url(#SVGID_24_)" enable-background="new    ">
					<path fill="#173063" d="M246.609,138.854l3.523-2.048c-0.032,0.172-0.064,0.353-0.097,0.532
						c-0.013,0.067-0.027,0.134-0.042,0.198l-3.523,2.048c0.015-0.064,0.028-0.131,0.041-0.198
						C246.545,139.206,246.577,139.025,246.609,138.854"/>
					<path fill="#162F60" d="M246.471,139.584l3.523-2.048c-0.024,0.105-0.051,0.208-0.08,0.308l-3.523,2.048
						C246.42,139.792,246.446,139.689,246.471,139.584"/>
					<path fill="#152D5D" d="M246.391,139.892l3.523-2.048c-0.031,0.109-0.066,0.215-0.104,0.316l-3.524,2.048
						C246.323,140.106,246.358,140.001,246.391,139.892"/>
					<path fill="#152C5A" d="M246.285,140.208l3.524-2.048c-0.044,0.12-0.093,0.234-0.145,0.344l-3.524,2.048
						C246.193,140.442,246.241,140.328,246.285,140.208"/>
					<path fill="#142A56" d="M246.141,140.552l3.524-2.048c-0.066,0.139-0.138,0.269-0.215,0.391l-3.524,2.048
						C246.003,140.82,246.075,140.69,246.141,140.552"/>
					<path fill="#132953" d="M245.926,140.942l3.524-2.048c-0.271,0.425-0.607,0.749-0.996,0.975l-3.524,2.048
						C245.318,141.691,245.656,141.367,245.926,140.942"/>
				</g>
			</g>
			<g enable-background="new    ">
				<defs>
					<path id="SVGID_25_" enable-background="new    " d="M246.612,137.79l3.524-2.048c-0.002,0.353-0.002,0.711-0.004,1.063
						l-3.523,2.048C246.61,138.501,246.611,138.143,246.612,137.79z"/>
				</defs>
				<clipPath id="SVGID_26_">
					<use xlink:href="#SVGID_25_"  overflow="visible"/>
				</clipPath>
				<g clip-path="url(#SVGID_26_)" enable-background="new    ">
					<path fill="#1B3873" d="M246.612,137.79l3.524-2.048c-0.002,0.353-0.002,0.711-0.004,1.063l-3.523,2.048
						C246.61,138.501,246.611,138.143,246.612,137.79"/>
				</g>
			</g>
			<g>
				<path fill="#142A56" d="M236.981,137.8c-0.083-0.129-0.165-0.258-0.254-0.39c-0.872,0.423-1.724,0.843-2.595,1.273
					c0.873,1.437,1.719,2.844,2.579,4.259c0.966-0.413,2.06-0.347,3.312,0.185c0.25,0.105,0.499,0.231,0.747,0.374
					c2.513,1.45,4.865,4.755,5.561,7.979c0.101,0.478,0.163,0.939,0.238,1.409c-0.001,0.359-0.002,0.712-0.003,1.063
					c-0.052,0.287-0.098,0.568-0.162,0.84c-0.582,2.397-2.49,3.214-5.02,2.15c-0.252-0.106-0.505-0.232-0.756-0.377
					c-2.383-1.376-4.626-4.424-5.444-7.517c-0.398-1.509-0.452-2.848-0.123-3.973c0.071-0.246,0.014-0.403-0.189-0.676
					c-6.499-8.66-12.997-17.336-19.495-26.012c-0.09-0.117-0.186-0.246-0.345-0.463c0.633,0.094,1.202,0.15,1.783,0.273
					c1.24,0.238,2.512,0.641,3.821,1.301c0.166,0.083,0.332,0.172,0.496,0.266c0.98,0.566,1.896,1.359,2.687,2.572
					c1.496,2.305,2.993,4.602,4.47,6.924c1.013,1.591,1.999,3.219,2.992,4.843c0.083,0.136,0.152,0.221,0.228,0.264
					c0.063,0.036,0.131,0.044,0.213,0.027c1.063-0.21,2.131-0.394,3.205-0.567c0.205-0.028,0.231-0.146,0.168-0.447
					c-0.896-4.374,1.434-6.932,4.895-5.382c0.249,0.112,0.496,0.239,0.739,0.38c2.665,1.538,4.936,4.729,5.664,8.079
					c0.101,0.447,0.15,0.889,0.22,1.332c-0.001,0.353-0.002,0.711-0.003,1.063c-0.032,0.172-0.064,0.353-0.098,0.532
					c-0.586,3.048-3.15,3.646-5.812,2.11C239.411,140.752,238.102,139.509,236.981,137.8z M240.731,146.102
					c-1.961-1.141-3.536-0.293-3.549,1.904c-0.012,2.139,1.547,4.832,3.438,5.931c2.004,1.164,3.599,0.357,3.611-1.832
					C244.244,149.907,242.685,147.236,240.731,146.102 M240.768,130.998c-1.954-1.128-3.529-0.288-3.542,1.888
					c-0.013,2.192,1.54,4.856,3.494,5.984c1.985,1.146,3.555,0.289,3.555-1.944C244.28,134.79,242.696,132.112,240.768,130.998"/>
			</g>
			<g enable-background="new    ">
				<defs>
					<path id="SVGID_27_" enable-background="new    " d="M236.574,127.928l3.523-2.048c0.883-0.513,2.063-0.534,3.416,0.071
						c0.249,0.112,0.495,0.239,0.738,0.379c2.665,1.539,4.936,4.73,5.665,8.08c0.101,0.447,0.15,0.889,0.22,1.332l-3.524,2.048
						c-0.069-0.443-0.119-0.885-0.22-1.332c-0.729-3.35-2.999-6.541-5.664-8.079c-0.243-0.141-0.49-0.268-0.739-0.38
						C238.637,127.394,237.456,127.415,236.574,127.928z"/>
				</defs>
				<clipPath id="SVGID_28_">
					<use xlink:href="#SVGID_27_"  overflow="visible"/>
				</clipPath>
				<g clip-path="url(#SVGID_28_)" enable-background="new    ">
					<path fill="#132953" d="M236.574,127.928l3.523-2.048c0.145-0.084,0.297-0.154,0.457-0.212l-3.524,2.048
						C236.871,127.773,236.719,127.844,236.574,127.928"/>
					<path fill="#142A56" d="M237.03,127.716l3.524-2.048c0.128-0.046,0.261-0.082,0.398-0.11l-3.524,2.048
						C237.291,127.634,237.158,127.67,237.03,127.716"/>
					<path fill="#152C5A" d="M237.429,127.605l3.524-2.048c0.106-0.021,0.217-0.037,0.328-0.048l-3.523,2.048
						C237.646,127.568,237.536,127.584,237.429,127.605"/>
					<path fill="#152D5D" d="M237.758,127.558l3.523-2.048c0.098-0.009,0.196-0.014,0.297-0.014l-3.523,2.048
						C237.953,127.544,237.854,127.549,237.758,127.558"/>
					<path fill="#162F60" d="M238.055,127.544l3.523-2.048c0.086,0,0.173,0.002,0.261,0.009l-3.524,2.048
						C238.227,127.547,238.14,127.544,238.055,127.544"/>
					<path fill="#173063" d="M238.314,127.553l3.524-2.048c0.085,0.006,0.171,0.015,0.259,0.026l-3.524,2.048
						C238.486,127.567,238.4,127.559,238.314,127.553"/>
					<path fill="#183266" d="M238.573,127.579l3.524-2.048c0.08,0.011,0.16,0.023,0.241,0.039l-3.523,2.048
						C238.733,127.603,238.653,127.59,238.573,127.579"/>
					<path fill="#18336A" d="M238.815,127.618l3.523-2.048c0.08,0.016,0.16,0.033,0.241,0.054l-3.523,2.048
						C238.976,127.651,238.895,127.634,238.815,127.618"/>
					<path fill="#19356D" d="M239.057,127.672l3.523-2.048c0.077,0.02,0.154,0.041,0.232,0.064l-3.523,2.048
						C239.211,127.713,239.133,127.691,239.057,127.672"/>
					<path fill="#1A3770" d="M239.289,127.736l3.523-2.048c0.078,0.023,0.156,0.049,0.234,0.076l-3.523,2.048
						C239.444,127.785,239.366,127.76,239.289,127.736"/>
					<path fill="#1B3873" d="M239.523,127.813l3.523-2.048c0.075,0.026,0.151,0.055,0.228,0.086l-3.523,2.048
						C239.675,127.867,239.599,127.839,239.523,127.813"/>
					<path fill="#1B3A76" d="M239.751,127.898l3.523-2.048c0.077,0.03,0.154,0.063,0.231,0.098l-3.523,2.048
						C239.904,127.961,239.827,127.929,239.751,127.898"/>
					<path fill="#1C3B7A" d="M239.982,127.996l3.523-2.048c0.003,0.001,0.005,0.002,0.008,0.003c0.088,0.04,0.175,0.081,0.263,0.124
						l-3.524,2.048c-0.087-0.043-0.175-0.084-0.263-0.124C239.987,127.998,239.984,127.997,239.982,127.996"/>
					<path fill="#1D3D7D" d="M240.252,128.123l3.524-2.048c0.09,0.045,0.18,0.091,0.27,0.14l-3.524,2.048
						C240.432,128.215,240.342,128.168,240.252,128.123"/>
					<path fill="#1E3E80" d="M240.521,128.263l3.524-2.048c0.068,0.037,0.138,0.076,0.206,0.115
						c0.021,0.013,0.041,0.024,0.063,0.036l-3.524,2.048c-0.021-0.012-0.041-0.023-0.062-0.035
						C240.659,128.339,240.591,128.3,240.521,128.263"/>
					<path fill="#1E4083" d="M240.79,128.414l3.524-2.048c0.089,0.053,0.179,0.107,0.268,0.164l-3.524,2.048
						C240.969,128.521,240.88,128.467,240.79,128.414"/>
					<path fill="#1F4286" d="M241.058,128.578l3.524-2.048c0.09,0.058,0.18,0.117,0.27,0.179l-3.523,2.048
						C241.238,128.695,241.148,128.636,241.058,128.578"/>
					<path fill="#20438A" d="M241.328,128.757l3.523-2.048c0.091,0.063,0.182,0.126,0.271,0.192l-3.524,2.048
						C241.509,128.883,241.419,128.819,241.328,128.757"/>
					<path fill="#21458D" d="M241.599,128.949l3.524-2.048c0.092,0.067,0.183,0.137,0.273,0.208l-3.524,2.048
						C241.781,129.086,241.69,129.017,241.599,128.949"/>
					<path fill="#214690" d="M241.872,129.157l3.524-2.048c0.092,0.073,0.184,0.148,0.275,0.226l-3.524,2.048
						C242.057,129.306,241.965,129.23,241.872,129.157"/>
					<path fill="#224893" d="M242.147,129.383l3.524-2.048c0.091,0.077,0.182,0.156,0.271,0.236l-3.523,2.048
						C242.33,129.539,242.239,129.46,242.147,129.383"/>
					<path fill="#234996" d="M242.42,129.619l3.523-2.048c0.09,0.081,0.179,0.163,0.266,0.248l-3.523,2.048
						C242.598,129.782,242.509,129.7,242.42,129.619"/>
					<path fill="#244B9A" d="M242.686,129.867l3.523-2.049c0.086,0.083,0.171,0.167,0.255,0.252l-3.523,2.049
						C242.856,130.033,242.771,129.949,242.686,129.867"/>
					<path fill="#244C9D" d="M242.94,130.119l3.523-2.049c0.081,0.083,0.161,0.167,0.241,0.252l-3.524,2.049
						C243.102,130.285,243.021,130.201,242.94,130.119"/>
					<path fill="#254EA0" d="M243.181,130.371l3.524-2.049c0.077,0.084,0.154,0.17,0.23,0.256l-3.524,2.049
						C243.336,130.54,243.259,130.455,243.181,130.371"/>
					<path fill="#3F63AB" d="M243.411,130.627l3.524-2.049c0.074,0.086,0.148,0.172,0.222,0.26l-3.524,2.048
						C243.561,130.798,243.486,130.712,243.411,130.627"/>
					<path fill="#4A6CB0" d="M243.633,130.886l3.524-2.048c0.076,0.092,0.152,0.186,0.227,0.28l-3.524,2.048
						C243.785,131.071,243.71,130.978,243.633,130.886"/>
					<path fill="#5273B4" d="M243.859,131.166l3.524-2.048c0.084,0.106,0.167,0.215,0.248,0.324l-3.524,2.048
						C244.026,131.381,243.943,131.272,243.859,131.166"/>
					<path fill="#5978B7" d="M244.107,131.49l3.524-2.048c0.118,0.161,0.233,0.324,0.346,0.491l-3.524,2.048
						C244.342,131.814,244.226,131.651,244.107,131.49"/>
					<path fill="#5F7DB9" d="M244.453,131.981l3.524-2.048c0.156,0.232,0.306,0.471,0.448,0.714l-3.523,2.048
						C244.76,132.452,244.609,132.214,244.453,131.981"/>
					<path fill="#5978B7" d="M244.902,132.695l3.523-2.048c0.094,0.159,0.184,0.321,0.271,0.484l-3.524,2.048
						C245.086,133.017,244.995,132.854,244.902,132.695"/>
					<path fill="#5273B4" d="M245.173,133.18l3.524-2.048c0.06,0.113,0.118,0.227,0.176,0.342l-3.524,2.048
						C245.292,133.406,245.233,133.293,245.173,133.18"/>
					<path fill="#4A6CB0" d="M245.349,133.521l3.524-2.048c0.046,0.093,0.091,0.186,0.135,0.279l-3.523,2.048
						C245.44,133.707,245.395,133.614,245.349,133.521"/>
					<path fill="#3F63AB" d="M245.484,133.801l3.523-2.048c0.043,0.092,0.085,0.184,0.126,0.276l-3.523,2.048
						C245.569,133.984,245.527,133.893,245.484,133.801"/>
					<path fill="#254EA0" d="M245.61,134.077l3.523-2.048c0.04,0.09,0.078,0.18,0.115,0.27l-3.523,2.048
						C245.688,134.257,245.649,134.167,245.61,134.077"/>
					<path fill="#244C9D" d="M245.726,134.347l3.523-2.048c0.038,0.092,0.075,0.184,0.111,0.275l-3.524,2.048
						C245.801,134.53,245.764,134.438,245.726,134.347"/>
					<path fill="#244B9A" d="M245.836,134.622l3.524-2.048c0.036,0.094,0.071,0.188,0.105,0.281l-3.523,2.049
						C245.908,134.81,245.873,134.716,245.836,134.622"/>
					<path fill="#234996" d="M245.942,134.904l3.523-2.049c0.036,0.099,0.07,0.197,0.104,0.296l-3.524,2.048
						C246.012,135.101,245.978,135.002,245.942,134.904"/>
					<path fill="#224893" d="M246.045,135.199l3.524-2.048c0.033,0.101,0.065,0.201,0.097,0.302l-3.524,2.048
						C246.111,135.4,246.078,135.3,246.045,135.199"/>
					<path fill="#214690" d="M246.142,135.501l3.524-2.048c0.032,0.104,0.063,0.209,0.092,0.314l-3.524,2.048
						C246.204,135.71,246.174,135.605,246.142,135.501"/>
					<path fill="#21458D" d="M246.233,135.815l3.524-2.048c0.032,0.116,0.063,0.233,0.092,0.351l-3.524,2.048
						C246.297,136.049,246.266,135.932,246.233,135.815"/>
					<path fill="#20438A" d="M246.325,136.166l3.524-2.048c0.023,0.098,0.046,0.194,0.067,0.292c0.003,0.015,0.006,0.029,0.01,0.045
						l-3.524,2.048c-0.003-0.015-0.006-0.03-0.01-0.045C246.371,136.36,246.349,136.264,246.325,136.166"/>
					<path fill="#1F4286" d="M246.402,136.503l3.524-2.048c0.016,0.072,0.03,0.144,0.044,0.216l-3.524,2.048
						C246.433,136.646,246.418,136.575,246.402,136.503"/>
					<path fill="#1E4083" d="M246.446,136.719l3.524-2.048c0.02,0.107,0.037,0.214,0.055,0.32l-3.524,2.048
						C246.484,136.933,246.467,136.826,246.446,136.719"/>
					<path fill="#1E3E80" d="M246.501,137.039l3.524-2.048c0.039,0.251,0.072,0.5,0.111,0.751l-3.524,2.048
						C246.573,137.539,246.54,137.29,246.501,137.039"/>
				</g>
			</g>
		</g>
	</g>
</g>
<rect x="139.668" y="37.5" fill="#1E3D87" width="19.699" height="22.899"/>
</svg>
