<?xml version="1.0" encoding="utf-8"?>
<!-- Generator: Adobe Illustrator 16.0.0, SVG Export Plug-In . SVG Version: 6.00 Build 0)  -->
<!DOCTYPE svg PUBLIC "-//W3C//DTD SVG 1.1//EN" "http://www.w3.org/Graphics/SVG/1.1/DTD/svg11.dtd">
<svg version="1.1" xmlns="http://www.w3.org/2000/svg" xmlns:xlink="http://www.w3.org/1999/xlink" x="0px" y="0px" width="9.397px"
	 height="15.918px" viewBox="0 0 9.397 15.918" enable-background="new 0 0 9.397 15.918" xml:space="preserve">
<g id="Ebene_1">
</g>
<g id="Karte">
	<g>
		<g>
			<g>
				
					<path fill-rule="evenodd" clip-rule="evenodd" fill="#4D4D4D" stroke="#FFFFFF" stroke-width="1.2943" stroke-miterlimit="10" d="
					M4.664,14.402C4.46,13.97,2.023,8.792,1.048,6.482c-0.875-2.084-0.276-4.07,1.399-5.176C3.82,0.402,5.767,0.429,7.079,1.382
					c1.418,1.029,2.076,2.777,1.41,4.58C7.745,7.974,5.105,13.464,4.664,14.402z M4.687,5.744c0.689-0.006,1.246-0.596,1.229-1.309
					C5.899,3.763,5.356,3.218,4.687,3.208C3.989,3.199,3.4,3.781,3.406,4.474C3.406,5.166,4,5.757,4.687,5.744z"/>
				<path display="none" fill-rule="evenodd" clip-rule="evenodd" fill="#4D4D4D" d="M4.687,5.744C4,5.757,3.406,5.166,3.406,4.474
					C3.4,3.781,3.989,3.199,4.687,3.208c0.67,0.01,1.213,0.555,1.229,1.227C5.933,5.148,5.376,5.738,4.687,5.744z"/>
			</g>
		</g>
		<g>
			<g>
				<path fill-rule="evenodd" clip-rule="evenodd" fill="#1E3D87" d="M4.664,14.402C4.46,13.97,2.023,8.792,1.048,6.482
					c-0.875-2.084-0.276-4.07,1.399-5.176C3.82,0.402,5.767,0.429,7.079,1.382c1.418,1.029,2.076,2.777,1.41,4.58
					C7.745,7.974,5.105,13.464,4.664,14.402z M4.687,5.744c0.689-0.006,1.246-0.596,1.229-1.309
					C5.899,3.763,5.356,3.218,4.687,3.208C3.989,3.199,3.4,3.781,3.406,4.474C3.406,5.166,4,5.757,4.687,5.744z"/>
				<path display="none" fill-rule="evenodd" clip-rule="evenodd" fill="#1E3D87" d="M4.687,5.744C4,5.757,3.406,5.166,3.406,4.474
					C3.4,3.781,3.989,3.199,4.687,3.208c0.67,0.01,1.213,0.555,1.229,1.227C5.933,5.148,5.376,5.738,4.687,5.744z"/>
			</g>
		</g>
	</g>
</g>
</svg>
