<?xml version="1.0" encoding="utf-8"?>
<!-- Generator: Adobe Illustrator 16.0.0, SVG Export Plug-In . SVG Version: 6.00 Build 0)  -->
<!DOCTYPE svg PUBLIC "-//W3C//DTD SVG 1.1//EN" "http://www.w3.org/Graphics/SVG/1.1/DTD/svg11.dtd">
<svg version="1.1" xmlns="http://www.w3.org/2000/svg" xmlns:xlink="http://www.w3.org/1999/xlink" x="0px" y="0px" width="9.63px"
	 height="15.499px" viewBox="0 0 9.63 15.499" enable-background="new 0 0 9.63 15.499" xml:space="preserve">
<g id="Ebene_1">
</g>
<g id="Karte">
	<g>
		<g>
			
				<path fill-rule="evenodd" clip-rule="evenodd" fill="#4D4D4D" stroke="#FFFFFF" stroke-width="1.2943" stroke-miterlimit="10" d="
				M1.675,14.342c0,0.281-0.229,0.508-0.513,0.51l0,0c-0.286,0-0.516-0.229-0.516-0.512L0.651,1.161c0-0.281,0.229-0.512,0.516-0.51
				l0,0c0.283,0,0.514,0.23,0.514,0.512L1.675,14.342z"/>
			
				<path fill-rule="evenodd" clip-rule="evenodd" fill="#4D4D4D" stroke="#FFFFFF" stroke-width="1.2943" stroke-miterlimit="10" d="
				M2.157,2.21c0,0,0.063-0.922,1.025-0.57c0.964,0.354,4.888,2.246,5.4,2.465c0.51,0.217,0.557,0.738,0,1.023
				C8.024,5.405,3.179,7.587,3.179,7.587S2.155,7.978,2.155,7.024S2.157,2.21,2.157,2.21z"/>
		</g>
		<g>
			<path fill-rule="evenodd" clip-rule="evenodd" fill="#1E3D87" d="M1.675,14.342c0,0.281-0.229,0.508-0.513,0.51l0,0
				c-0.286,0-0.516-0.229-0.516-0.512L0.651,1.161c0-0.281,0.229-0.512,0.516-0.51l0,0c0.283,0,0.514,0.23,0.514,0.512L1.675,14.342
				z"/>
			<path fill-rule="evenodd" clip-rule="evenodd" fill="#1E3D87" d="M2.157,2.21c0,0,0.063-0.922,1.025-0.57
				c0.964,0.354,4.888,2.246,5.4,2.465c0.51,0.217,0.557,0.738,0,1.023C8.024,5.405,3.179,7.587,3.179,7.587
				S2.155,7.978,2.155,7.024S2.157,2.21,2.157,2.21z"/>
		</g>
	</g>
</g>
</svg>
