<?xml version="1.0" encoding="utf-8"?>
<!-- Generator: Adobe Illustrator 16.0.0, SVG Export Plug-In . SVG Version: 6.00 Build 0)  -->
<!DOCTYPE svg PUBLIC "-//W3C//DTD SVG 1.1//EN" "http://www.w3.org/Graphics/SVG/1.1/DTD/svg11.dtd">
<svg version="1.1" id="Ebene_1" xmlns="http://www.w3.org/2000/svg" xmlns:xlink="http://www.w3.org/1999/xlink" x="0px" y="0px"
	 width="40px" height="40px" viewBox="33.334 33.334 40 40" enable-background="new 33.334 33.334 40 40" xml:space="preserve">
<g id="Ebene_1_1_">
	<g>
		<path fill="#FFFFFF" d="M43.475,72.834c-5.316,0-9.641-4.324-9.641-9.64V43.475c0-5.316,4.325-9.641,9.641-9.641h19.719
			c5.315,0,9.641,4.325,9.641,9.641v19.719c0,5.315-4.325,9.64-9.641,9.64H43.475z"/>
		<path fill="#203C89" d="M63.193,34.334c5.04,0,9.141,4.101,9.141,9.141v19.719c0,5.04-4.101,9.14-9.141,9.14H43.475
			c-5.04,0-9.141-4.1-9.141-9.14V43.475c0-5.04,4.101-9.141,9.141-9.141H63.193 M63.193,33.334H43.475
			c-5.601,0-10.141,4.54-10.141,10.141v19.719c0,5.6,4.54,10.14,10.141,10.14h19.719c5.6,0,10.141-4.54,10.141-10.14V43.475
			C73.334,37.875,68.793,33.334,63.193,33.334L63.193,33.334z"/>
	</g>
</g>
<path fill="#203C89" d="M49.172,57.085c0-1.612,0-3.185,0-4.771c-1.593,0-3.178,0-4.786,0c0,0.465,0,0.921,0,1.377
	c0,0.202,0.002,0.405-0.002,0.608c-0.005,0.213-0.099,0.38-0.301,0.459c-0.197,0.076-0.38,0.033-0.541-0.112
	c-1.117-1.011-2.235-2.022-3.353-3.034c-0.139-0.125-0.282-0.247-0.417-0.377c-0.24-0.232-0.25-0.526-0.005-0.748
	c1.265-1.151,2.535-2.296,3.805-3.441c0.151-0.137,0.333-0.176,0.521-0.088c0.195,0.09,0.29,0.255,0.291,0.469
	c0.002,0.547,0.001,1.095,0.001,1.643c0,0.104,0,0.208,0,0.331c1.605,0,3.188,0,4.783,0c0-1.585,0-3.165,0-4.781
	c-0.089,0-0.175,0-0.262,0c-0.548,0.001-1.095-0.001-1.642,0.003c-0.235,0.002-0.437-0.056-0.54-0.284
	c-0.108-0.238-0.011-0.427,0.154-0.609c1.084-1.193,2.163-2.391,3.244-3.588c0.373-0.413,0.625-0.411,0.998,0.002
	c1.049,1.164,2.102,2.326,3.151,3.489c0.025,0.028,0.049,0.059,0.078,0.082c0.198,0.162,0.293,0.357,0.191,0.612
	c-0.101,0.252-0.31,0.295-0.551,0.292c-0.555-0.005-1.11-0.001-1.665-0.001c-0.081,0-0.161,0-0.252,0c0,1.605,0,3.185,0,4.783
	c1.585,0,3.169,0,4.782,0c0-0.089,0-0.169,0-0.25c0-0.563,0.001-1.125,0-1.688c-0.001-0.23,0.082-0.413,0.302-0.508
	c0.221-0.095,0.401-0.015,0.569,0.139c1.207,1.092,2.415,2.182,3.623,3.273c0.407,0.369,0.405,0.613-0.001,0.979
	c-1.192,1.075-2.382,2.152-3.574,3.227c-0.087,0.078-0.186,0.161-0.294,0.196c-0.332,0.105-0.615-0.122-0.622-0.502
	c-0.01-0.555-0.003-1.11-0.003-1.665c0-0.089,0-0.179,0-0.285c-1.601,0-3.186,0-4.781,0c0,1.585,0,3.164,0,4.768
	c0.099,0,0.187,0,0.274,0c0.547,0,1.095,0.001,1.643,0c0.236-0.001,0.434,0.074,0.529,0.303c0.092,0.217,0.02,0.405-0.135,0.575
	c-1.114,1.228-2.223,2.458-3.335,3.688c-0.287,0.317-0.567,0.319-0.856,0c-1.118-1.233-2.233-2.471-3.351-3.704
	c-0.149-0.165-0.211-0.347-0.124-0.556c0.092-0.218,0.276-0.306,0.506-0.306c0.563-0.001,1.125-0.001,1.688-0.001
	C48.993,57.085,49.074,57.085,49.172,57.085z"/>
<polygon fill="#1E3D87" stroke="#FFFFFF" stroke-linecap="round" stroke-linejoin="round" stroke-miterlimit="10" points="
	51.652,51.703 56.595,66.109 65.562,57.905 "/>
<line fill="none" stroke="#1E3D87" stroke-width="3" stroke-miterlimit="10" x1="65.636" y1="66.988" x2="57.493" y2="58.088"/>
</svg>
