<?xml version="1.0" encoding="utf-8"?>
<!-- Generator: Adobe Illustrator 16.0.0, SVG Export Plug-In . SVG Version: 6.00 Build 0)  -->
<!DOCTYPE svg PUBLIC "-//W3C//DTD SVG 1.1//EN" "http://www.w3.org/Graphics/SVG/1.1/DTD/svg11.dtd">
<svg version="1.1" id="Ebene_1" xmlns="http://www.w3.org/2000/svg" xmlns:xlink="http://www.w3.org/1999/xlink" x="0px" y="0px"
	 width="40px" height="40px" viewBox="33.334 33.334 40 40" enable-background="new 33.334 33.334 40 40" xml:space="preserve">
<g id="Ebene_1_1_">
	<g>
		<path fill="#FFFFFF" d="M43.475,72.834c-5.316,0-9.641-4.324-9.641-9.64V43.476c0-5.316,4.325-9.642,9.641-9.642h19.719
			c5.315,0,9.641,4.325,9.641,9.642v19.718c0,5.315-4.325,9.64-9.641,9.64H43.475z"/>
		<path fill="#203C89" d="M63.193,34.334c5.04,0,9.141,4.101,9.141,9.142v19.718c0,5.04-4.101,9.14-9.141,9.14H43.475
			c-5.04,0-9.141-4.1-9.141-9.14V43.476c0-5.041,4.101-9.142,9.141-9.142H63.193 M63.193,33.334H43.475
			c-5.601,0-10.141,4.54-10.141,10.142v19.718c0,5.6,4.54,10.14,10.141,10.14h19.719c5.602,0,10.141-4.54,10.141-10.14V43.476
			C73.334,37.875,68.795,33.334,63.193,33.334L63.193,33.334z"/>
	</g>
</g>
<g>
	<path fill="#203C89" d="M64.311,46.598c0,0.599,0,1.178,0,1.759c0,5.561-0.004,11.122,0.004,16.68
		c0.002,1.027-0.305,1.91-1.063,2.617c-0.611,0.57-1.342,0.869-2.176,0.871c-5.16,0.008-10.319,0.01-15.479,0.002
		c-1.774-0.004-3.228-1.461-3.229-3.248c-0.011-5.652-0.004-11.303-0.005-16.956c0-0.568,0-1.137,0-1.726
		C49.69,46.598,56.982,46.598,64.311,46.598z M48.953,57.57c0-0.24,0-0.479,0-0.719c0-1.934,0.001-3.869,0-5.801
		c0-0.55-0.272-0.961-0.731-1.125c-0.764-0.276-1.482,0.27-1.483,1.143c-0.004,4.327-0.004,8.651-0.003,12.975
		c0,0.713,0.465,1.213,1.119,1.211c0.644,0,1.099-0.508,1.099-1.23C48.952,61.873,48.952,59.725,48.953,57.57z M54.443,57.566
		c0,0,0.002,0,0.004,0c0-2.172-0.004-4.348,0.002-6.522c0-0.508-0.213-0.889-0.677-1.098c-0.752-0.336-1.54,0.217-1.541,1.09
		c-0.005,4.35-0.005,8.698-0.003,13.043c0,0.686,0.48,1.178,1.123,1.174c0.633-0.002,1.092-0.508,1.092-1.199
		C54.443,61.893,54.443,59.73,54.443,57.566z M59.936,57.57h0.002c0-2.174,0.002-4.346,0-6.521
		c-0.002-0.531-0.264-0.943-0.699-1.116c-0.756-0.299-1.516,0.243-1.516,1.1c-0.008,4.336-0.006,8.674-0.006,13.01
		c0,0.713,0.465,1.213,1.119,1.211c0.646,0,1.1-0.508,1.1-1.23C59.936,61.873,59.936,59.725,59.936,57.57z"/>
	<path fill="#203C89" d="M48.953,41.087c0-0.751-0.005-1.447,0.001-2.145c0.014-1.315,0.936-2.238,2.256-2.246
		c1.441-0.008,2.88-0.007,4.323-0.002c1.213,0.005,2.174,0.969,2.184,2.179c0.004,0.72,0,1.439,0,2.213c0.127,0,0.236,0,0.344,0
		c1.26,0,2.516,0.002,3.773,0.001c1.998-0.001,3.574,1.566,3.574,3.566c0.002,0.884,0.078,0.806-0.818,0.806
		c-7.605,0.001-15.211,0-22.817-0.001c-0.507,0-0.487-0.001-0.511-0.528c-0.09-2.026,1.201-3.277,2.4-3.642
		c0.388-0.118,0.804-0.185,1.209-0.192c1.235-0.024,2.471-0.01,3.706-0.01C48.688,41.087,48.8,41.087,48.953,41.087z M51.13,41.066
		c1.496,0,2.94,0,4.411,0c0-0.616,0.004-1.208,0-1.8c-0.006-0.243-0.146-0.391-0.389-0.392c-1.211-0.007-2.42-0.007-3.632,0
		c-0.241,0.001-0.384,0.146-0.388,0.389C51.125,39.854,51.13,40.447,51.13,41.066z"/>
</g>
</svg>
