<?xml version="1.0" encoding="utf-8"?>
<!-- Generator: Adobe Illustrator 16.0.0, SVG Export Plug-In . SVG Version: 6.00 Build 0)  -->
<!DOCTYPE svg PUBLIC "-//W3C//DTD SVG 1.1//EN" "http://www.w3.org/Graphics/SVG/1.1/DTD/svg11.dtd">
<svg version="1.1" id="Ebene_1" xmlns="http://www.w3.org/2000/svg" xmlns:xlink="http://www.w3.org/1999/xlink" x="0px" y="0px"
	 width="106.668px" height="106.668px" viewBox="0 0 106.668 106.668" enable-background="new 0 0 106.668 106.668"
	 xml:space="preserve">
<g id="Ebene_1_1_">
	<path fill="#FFFFFF" stroke="#203C89" stroke-width="2" stroke-linecap="round" stroke-miterlimit="10" d="M105.668,79.133
		c0,14.654-11.881,26.535-26.535,26.535H27.535C12.88,105.668,1,93.787,1,79.133V27.535C1,12.88,12.88,1,27.535,1h51.598
		c14.654,0,26.535,11.88,26.535,26.535V79.133z"/>
</g>
<polygon fill="#203C89" points="189.063,-4.809 138.126,46.126 170.594,50.094 "/>
<line fill="none" stroke="#203C89" stroke-width="6" stroke-linecap="round" stroke-miterlimit="10" x1="210.302" y1="27.867" x2="159.367" y2="-23.069"/>
<path fill="#203C89" d="M-12.581,40.586c0,1.174,0,2.313,0,3.453c0,10.915-0.008,21.829,0.008,32.744
	c0.003,2.015-0.598,3.748-2.086,5.135c-1.201,1.118-2.637,1.707-4.273,1.71c-10.128,0.013-20.257,0.021-30.386,0.003
	c-3.484-0.006-6.334-2.869-6.34-6.375c-0.019-11.095-0.007-22.188-0.008-33.283c0-1.117,0-2.234,0-3.387
	C-41.283,40.586-26.968,40.586-12.581,40.586z M-42.729,62.127c0-0.471,0-0.943,0-1.414c0-3.796,0.003-7.591,0-11.387
	c-0.001-1.078-0.536-1.885-1.437-2.21c-1.499-0.541-2.91,0.53-2.911,2.245c-0.009,8.489-0.007,16.978-0.005,25.467
	c0,1.402,0.911,2.381,2.195,2.379c1.265-0.001,2.157-0.999,2.157-2.413C-42.731,70.57-42.731,66.35-42.729,62.127z M-31.949,62.117
	c0.001,0,0.002,0,0.003,0c0-4.268-0.003-8.534,0.002-12.802c0.001-0.998-0.413-1.746-1.325-2.154
	c-1.479-0.661-3.024,0.425-3.026,2.139c-0.01,8.535-0.009,17.069-0.005,25.604c0,1.342,0.942,2.31,2.202,2.303
	c1.242-0.006,2.148-0.996,2.148-2.354C-31.948,70.607-31.949,66.361-31.949,62.117z M-21.169,62.126c0.001,0,0.002,0,0.004,0
	c0-4.269,0.002-8.535-0.002-12.802c-0.001-1.043-0.516-1.851-1.373-2.192c-1.477-0.587-2.972,0.479-2.974,2.159
	c-0.011,8.512-0.009,17.025-0.007,25.537c0,1.402,0.911,2.381,2.194,2.379c1.266-0.001,2.157-0.999,2.157-2.414
	C-21.169,70.57-21.169,66.35-21.169,62.126z"/>
<path fill="#203C89" d="M-42.729,29.769c0-1.474-0.011-2.842,0.002-4.21c0.026-2.583,1.834-4.393,4.427-4.409
	c2.829-0.017,5.658-0.015,8.487-0.004c2.385,0.01,4.274,1.901,4.289,4.278c0.009,1.413,0.001,2.826,0.001,4.344
	c0.248,0,0.461,0,0.674,0c2.47,0.001,4.939,0.004,7.409,0.003c3.922-0.001,7.01,3.074,7.013,7.001
	c0.002,1.734,0.156,1.583-1.606,1.583c-14.931,0.001-29.861-0.001-44.792-0.003c-0.996,0-0.958-0.003-1.003-1.037
	c-0.176-3.979,2.357-6.434,4.712-7.149c0.761-0.231,1.579-0.361,2.374-0.377c2.424-0.049,4.849-0.019,7.274-0.021
	C-43.249,29.769-43.03,29.769-42.729,29.769z M-38.457,29.726c2.938,0,5.774,0,8.662,0c0-1.208,0.009-2.37-0.004-3.532
	c-0.006-0.478-0.283-0.768-0.757-0.77c-2.378-0.012-4.755-0.012-7.132-0.001c-0.476,0.002-0.757,0.287-0.764,0.763
	C-38.467,27.349-38.457,28.511-38.457,29.726z"/>
<polygon fill="#1E3D87" points="184.834,67.055 196.273,100.395 217.023,81.406 "/>
<line fill="none" stroke="#1E3D87" stroke-width="4" stroke-linecap="round" stroke-miterlimit="10" x1="217.195" y1="102.43" x2="198.352" y2="81.831"/>
<path fill-rule="evenodd" clip-rule="evenodd" fill="#203C89" d="M122.538,187.763c0-5.279,0-10.497,0-15.709
	c-0.271-0.073-9.891-0.097-10.406-0.025c0,5.221,0,10.447,0,15.701c-0.134,0.013-0.234,0.03-0.334,0.03
	c-4.798,0.002-9.596-0.012-14.394,0.01c-1.335,0.006-2.373-1.202-2.366-2.36c0.001-0.118-0.001-0.235-0.001-0.354
	c0-6.361,0.003-12.723-0.008-19.084c0-0.341,0.105-0.56,0.359-0.779c7.22-6.247,14.068-12.187,21.283-18.439
	c0,0,0.365-0.388,0.657-0.388c0.333,0,0.688,0.413,0.688,0.413c7.215,6.254,14.041,12.173,21.261,18.42
	c0.256,0.221,0.354,0.44,0.354,0.777c-0.011,6.421-0.011,12.841-0.005,19.262c0.001,0.763-0.253,1.399-0.807,1.92
	c-0.383,0.36-0.827,0.574-1.357,0.597c-0.152,0.006-0.305,0.009-0.458,0.009c-4.656,0-9.313,0-13.97,0
	C122.885,187.763,122.733,187.763,122.538,187.763z"/>
<path fill-rule="evenodd" clip-rule="evenodd" fill="#203C89" d="M120.29,136.607c-0.437-0.384-0.909-0.716-1.47-0.884
	c-1.648-0.495-3.15-0.258-4.475,0.905c-4.081,3.584-8.17,7.16-12.256,10.739c-5.183,4.539-10.359,9.086-15.557,13.609
	c-0.573,0.499-0.602,1.347-0.152,1.81c0.09,0.092,0.163,0.2,0.243,0.302c0.682,0.854,1.358,1.713,2.047,2.563
	c0.394,0.484,0.936,0.563,1.44,0.226c0.098-0.064,0.186-0.144,0.274-0.221c8.849-7.759,17.698-15.518,26.547-23.277
	c0.123-0.107,0.247-0.213,0.395-0.34c0.122,0.103,0.214,0.175,0.302,0.252c6.551,5.743,13.102,11.487,19.652,17.23
	c2.36,2.07,4.722,4.138,7.079,6.212c0.25,0.22,0.512,0.36,0.854,0.34c0.359-0.021,0.612-0.206,0.825-0.476
	c0.68-0.856,1.362-1.711,2.043-2.566c0.11-0.138,0.227-0.271,0.325-0.417c0.335-0.494,0.255-1.13-0.187-1.534
	c-0.087-0.079-0.177-0.155-0.265-0.232L120.29,136.607z"/>
<path fill-rule="evenodd" clip-rule="evenodd" fill="#203C89" d="M126.693,138.244c0.001-2.575,0.001-5.259,0.001-7.834
	c0-0.117-0.002-0.235,0.002-0.353c0.02-0.665,0.423-1.073,1.092-1.078c1.152-0.009,2.305-0.003,3.457-0.003
	c1.293,0,2.587-0.006,3.88,0.006c0.216,0.003,0.452,0.045,0.643,0.141c0.325,0.163,0.483,0.469,0.514,0.832
	c0.012,0.14,0.007,0.282,0.007,0.423c0,5.397,0.002,10.794-0.007,16.19L126.693,138.244z"/>
<g>
	<path fill-rule="evenodd" clip-rule="evenodd" fill="#203C89" d="M58.529,79.472c0-5.279,0-10.497,0-15.709
		c-0.271-0.073-9.891-0.097-10.406-0.025c0,5.221,0,10.447,0,15.701c-0.134,0.013-0.234,0.03-0.334,0.03
		c-4.798,0.002-9.596-0.012-14.394,0.01c-1.335,0.006-2.373-1.202-2.366-2.36c0.001-0.118-0.001-0.235-0.001-0.354
		c0-6.361,0.003-12.723-0.008-19.084c0-0.341,0.105-0.56,0.359-0.779c7.22-6.247,14.068-12.186,21.283-18.439
		c0,0,0.365-0.388,0.657-0.388c0.333,0,0.688,0.413,0.688,0.413c7.215,6.254,14.041,12.173,21.261,18.419
		c0.256,0.221,0.354,0.44,0.354,0.777c-0.011,6.421-0.011,12.841-0.005,19.262c0.001,0.763-0.253,1.399-0.807,1.92
		c-0.383,0.36-0.827,0.574-1.357,0.597c-0.152,0.006-0.305,0.009-0.458,0.009c-4.656,0-9.313,0-13.97,0
		C58.876,79.472,58.725,79.472,58.529,79.472z"/>
	<path fill-rule="evenodd" clip-rule="evenodd" fill="#203C89" d="M56.281,28.317c-0.437-0.384-0.909-0.716-1.47-0.884
		c-1.648-0.495-3.15-0.258-4.475,0.905c-4.081,3.584-8.17,7.16-12.256,10.739c-5.183,4.539-10.359,9.086-15.557,13.609
		c-0.573,0.499-0.602,1.346-0.152,1.809c0.09,0.092,0.163,0.2,0.243,0.302c0.682,0.854,1.358,1.713,2.047,2.563
		c0.394,0.484,0.936,0.563,1.44,0.226c0.098-0.064,0.186-0.144,0.274-0.221c8.849-7.758,17.698-15.517,26.547-23.277
		c0.123-0.107,0.247-0.213,0.395-0.34c0.122,0.103,0.214,0.175,0.302,0.252c6.551,5.743,13.102,11.487,19.652,17.23
		c2.36,2.07,4.722,4.137,7.079,6.211c0.25,0.22,0.512,0.36,0.854,0.34c0.359-0.021,0.612-0.206,0.825-0.476
		c0.68-0.856,1.362-1.711,2.043-2.566c0.11-0.138,0.227-0.271,0.325-0.417c0.335-0.494,0.255-1.129-0.187-1.534
		c-0.087-0.079-0.177-0.155-0.265-0.232L56.281,28.317z"/>
</g>
</svg>
