<?xml version="1.0" encoding="utf-8"?>
<!-- Generator: Adobe Illustrator 16.0.0, SVG Export Plug-In . SVG Version: 6.00 Build 0)  -->
<!DOCTYPE svg PUBLIC "-//W3C//DTD SVG 1.1//EN" "http://www.w3.org/Graphics/SVG/1.1/DTD/svg11.dtd">
<svg version="1.1" id="Ebene_1" xmlns="http://www.w3.org/2000/svg" xmlns:xlink="http://www.w3.org/1999/xlink" x="0px" y="0px"
	 width="40px" height="40px" viewBox="33.333 33.334 40 40" enable-background="new 33.333 33.334 40 40" xml:space="preserve">
<g id="Ebene_1_1_">
	<g>
		<path id = "background" fill="#FFFFFF" d="M43.474,72.834c-5.316,0-9.641-4.325-9.641-9.641V43.475c0-5.316,4.325-9.641,9.641-9.641h19.719
			c5.315,0,9.641,4.325,9.641,9.641v19.719c0,5.315-4.325,9.641-9.641,9.641H43.474z"/>
		<path id = "contour" fill="#203C89" d="M63.193,34.334c5.04,0,9.141,4.101,9.141,9.141v19.719c0,5.04-4.101,9.141-9.141,9.141H43.474
			c-5.04,0-9.141-4.101-9.141-9.141V43.475c0-5.04,4.101-9.141,9.141-9.141H63.193 M63.193,33.334H43.474
			c-5.601,0-10.141,4.54-10.141,10.141v19.719c0,5.6,4.54,10.141,10.141,10.141h19.719c5.6,0,10.141-4.541,10.141-10.141V43.475
			C73.334,37.874,68.793,33.334,63.193,33.334L63.193,33.334z"/>
	</g>
</g>
<g id="Ebene_2">
	
		<line id = "line" fill="none" stroke="#203C89" stroke-width="2" stroke-linecap="round" stroke-miterlimit="10" x1="41.949" y1="65.378" x2="65.378" y2="41.949"/>
	<polygon fill="#203C89" points="59.694,48.318 58.071,61.488 68.225,58.483 	"/>
	<line fill="none" stroke="#203C89" stroke-width="3" stroke-miterlimit="10" x1="64.817" y1="65.626" x2="61.834" y2="55.548"/>
</g>
</svg>
